<svg width="195" height="59" viewBox="0 0 195 59" fill="none" xmlns="http://www.w3.org/2000/svg">
<g clip-path="url(#clip0_111_580)">
<path fill-rule="evenodd" clip-rule="evenodd" d="M47.94 12.74C47.94 52.83 48.72 52.87 46.12 52.87C37.71 52.87 31.25 52.03 25.24 58.03C25.23 58.03 24.88 58.25 24.79 58.25C21.39 58.25 19.75 52.87 11.02 52.87C2.83997 52.87 0.529972 53.48 0.529972 51.04C0.529972 6.16 -1.78003 10.92 7.51997 10.92C13.88 -3.64 34.59 -3.64 40.95 10.92C44.32 10.92 47.94 10.17 47.94 12.74ZM11.83 10.94C15.05 11.08 17.74 11.86 20.44 13.21C25.46 15.83 22.67 16.77 27.79 13.34C30.9 11.72 33.73 11.07 36.63 10.94C37.31 10.94 32.74 3.62 24.23 3.62C15.74 3.62 11.17 10.94 11.83 10.94ZM21.76 18.43C17.08 13.74 8.33997 14.57 4.16997 14.57V49.22H11.02C19.63 49.22 20.98 53.24 20.26 50.74C17.17 40.57 15.64 26.59 21.76 18.43ZM43.22 34.51C40.16 37.56 30.41 43.77 27.03 52.07C32.81 48.67 37.28 49.22 44.3 49.22C44.3 29.59 44.76 32.65 43.22 34.51ZM44.3 14.57C39.59 14.57 29.48 13.66 24.84 20.38C20.81 26.32 20.66 34.69 21.85 41.79C24.24 28.94 33.7 22.48 34.17 22.16L36.19 25.21C35.72 25.51 24.83 33.03 24.95 48.05C32.68 34.61 44.3 34.64 44.3 21.42V14.57Z" fill="white"/>
<path d="M66.08 19.29L60.76 11.97H64.43L67.91 16.78L71.41 11.97H75.09L69.75 19.29L75.15 26.72H71.48L67.91 21.82L64.34 26.72H60.67L66.08 19.29Z" fill="white"/>
<path fill-rule="evenodd" clip-rule="evenodd" d="M81.46 11.97H84.6L90.49 26.72H87.22L85.95 23.51H80.11L78.84 26.72H75.55L81.46 11.97ZM85.11 20.96L83.02 15.35L80.93 20.96H85.11Z" fill="white"/>
<path d="M92.26 11.97H95.47V24.04H102.23V26.72H92.26V11.97Z" fill="white"/>
<path fill-rule="evenodd" clip-rule="evenodd" d="M107.1 25.8199C105.85 25.2299 104.88 24.3699 104.2 23.2499C103.52 22.1299 103.17 20.8199 103.17 19.3099C103.17 17.8099 103.52 16.4799 104.21 15.3099C104.9 14.1499 105.84 13.2499 107.05 12.6099C108.25 11.9699 109.59 11.6499 111.07 11.6499C112.54 11.6499 113.88 11.9699 115.07 12.6099C116.25 13.2499 117.19 14.1499 117.88 15.3099C118.57 16.4799 118.92 17.8099 118.92 19.3099C118.92 20.2399 118.7 21.1399 118.27 22.0199C117.84 22.8899 117.31 23.5799 116.66 24.0999H119.23V26.7199H111.47C109.81 26.7199 108.35 26.4199 107.1 25.8199ZM113.43 23.3799C114.12 23.0199 114.66 22.4899 115.06 21.7899C115.45 21.0999 115.65 20.2799 115.65 19.3299C115.65 18.3899 115.45 17.5699 115.04 16.8599C114.64 16.1499 114.1 15.5999 113.4 15.2199C112.7 14.8399 111.92 14.6499 111.07 14.6499C110.19 14.6499 109.41 14.8399 108.71 15.2199C108.02 15.5999 107.46 16.1499 107.06 16.8599C106.65 17.5699 106.45 18.3899 106.45 19.3299C106.45 20.7699 106.87 21.8899 107.72 22.6999C108.57 23.5099 109.69 23.9099 111.07 23.9099C111.95 23.9099 112.74 23.7399 113.43 23.3799Z" fill="white"/>
<path d="M131.56 14.65H127.25V11.97H139.07V14.65H134.77V26.72H131.56V14.65Z" fill="white"/>
<path fill-rule="evenodd" clip-rule="evenodd" d="M143.33 11.97H146.48L152.37 26.72H149.1L147.83 23.51H141.98L140.72 26.72H137.43L143.33 11.97ZM146.99 20.96L144.9 15.35L142.81 20.96H146.99Z" fill="white"/>
<path d="M150.89 12.23H154.49L155.83 15.69H152.66L150.89 12.23Z" fill="white"/>
<path d="M157.42 11.97H160.62V24.04H167.38V26.72H157.42V11.97Z" fill="white"/>
<path d="M168.75 11.97H171.95V26.72H168.75V11.97Z" fill="white"/>
<path d="M174.17 11.97H177.34L181.87 21.85L186.43 11.97H189.58V26.72H186.52V18.34L182.61 26.72H181.13L177.25 18.34V26.72H174.17V11.97Z" fill="white"/>
<path d="M191.79 11.97H195V26.72H191.79V11.97Z" fill="white"/>
<path d="M60.67 37.97H64.09L68.14 48.46L72.22 37.97H75.61L69.73 52.72H66.58L60.67 37.97Z" fill="white"/>
<path fill-rule="evenodd" clip-rule="evenodd" d="M80.02 37.97H83.17L89.06 52.72H85.79L84.52 49.51H78.67L77.41 52.72H74.12L80.02 37.97ZM83.67 46.96L81.59 41.35L79.5 46.96H83.67Z" fill="white"/>
<path d="M90.09 50.59L97.31 40.65H90.28V37.97H101.28V40.12L94.1 50.04H101.7V52.72H90.09V50.59Z" fill="white"/>
<path d="M103.49 37.97H106.7V52.72H103.49V37.97Z" fill="white"/>
<path fill-rule="evenodd" clip-rule="evenodd" d="M108.91 37.97H115.31C116.98 37.97 118.29 38.39 119.22 39.23C120.16 40.06 120.63 41.27 120.63 42.84C120.63 43.94 120.37 44.87 119.87 45.64C119.36 46.41 118.64 46.97 117.71 47.32L120.52 52.72H117.23L114.63 47.72H112.12V52.72H108.91V37.97ZM114.74 45.04C115.55 45.04 116.2 44.86 116.67 44.51C117.14 44.16 117.38 43.6 117.38 42.84C117.38 42.04 117.15 41.48 116.68 41.15C116.22 40.82 115.57 40.65 114.74 40.65H112.12V45.04H114.74Z" fill="white"/>
<path d="M122.42 37.97H125.63V50.04H132.38V52.72H122.42V37.97Z" fill="white"/>
<path d="M133.75 37.97H136.96V52.72H133.75V37.97Z" fill="white"/>
<path d="M142.55 52.0999C141.34 51.4699 140.41 50.5799 139.75 49.4299C139.08 48.2799 138.75 46.9199 138.75 45.3599C138.75 43.7899 139.08 42.4299 139.75 41.2699C140.41 40.1099 141.34 39.2199 142.55 38.5899C143.76 37.9699 145.16 37.6499 146.73 37.6499C147.8 37.6499 148.75 37.7599 149.57 37.9799C150.39 38.1999 151.15 38.5399 151.84 38.9999V42.0599C151.22 41.5599 150.51 41.1899 149.72 40.9599C148.92 40.7199 148.02 40.6099 147.01 40.6099C146.06 40.6099 145.22 40.7999 144.46 41.1899C143.71 41.5699 143.12 42.1299 142.68 42.8399C142.24 43.5599 142.03 44.3999 142.03 45.3599C142.03 46.3299 142.23 47.1699 142.63 47.8999C143.03 48.6199 143.59 49.1799 144.33 49.5799C145.06 49.9699 145.9 50.1699 146.86 50.1699C147.73 50.1699 148.49 50.0099 149.14 49.6999V46.8499H146.75V44.4899H152.24V51.5999C150.85 52.5599 149.01 53.0399 146.73 53.0399C145.16 53.0399 143.76 52.7199 142.55 52.0999Z" fill="white"/>
<path d="M154.03 37.97H157.24V52.72H154.03V37.97Z" fill="white"/>
</g>
<defs>
<clipPath id="clip0_111_580">
<rect width="195" height="59" fill="white"/>
</clipPath>
</defs>
</svg>
