<svg width="199" height="52" viewBox="0 0 199 52" fill="none" xmlns="http://www.w3.org/2000/svg">
<path fill-rule="evenodd" clip-rule="evenodd" d="M42.5129 11.1225C42.5129 46.1228 43.2046 46.1577 40.8989 46.1577C33.441 46.1577 27.7123 45.4243 22.3827 50.6626C22.3738 50.6626 22.0634 50.8547 21.9836 50.8547C18.9685 50.8547 17.5142 46.1577 9.77249 46.1577C2.51853 46.1577 0.470037 46.6903 0.470037 44.56C0.470037 5.37793 -1.57845 9.53361 6.66872 9.53361C12.3087 -3.17787 30.6742 -3.17787 36.3142 9.53361C39.3027 9.53361 42.5129 8.87883 42.5129 11.1225V11.1225ZM10.4908 9.55107C13.3463 9.6733 15.7317 10.3543 18.1261 11.5329C22.5778 13.8202 20.1036 14.6409 24.644 11.6464C27.4019 10.232 29.9116 9.66457 32.4833 9.55107C33.0863 9.55107 29.0336 3.16041 21.487 3.16041C13.9582 3.16041 9.90551 9.55107 10.4908 9.55107V9.55107ZM19.2966 16.0902C15.1465 11.9956 7.39589 12.7202 3.69796 12.7202V42.9711H9.77249C17.4078 42.9711 18.6049 46.4807 17.9665 44.2981C15.2263 35.4193 13.8695 23.2142 19.2966 16.0902ZM38.3272 30.1287C35.6136 32.7914 26.9674 38.213 23.97 45.4593C29.0957 42.4909 33.0597 42.9711 39.2849 42.9711C39.2849 25.8333 39.6929 28.5048 38.3272 30.1287V30.1287ZM39.2849 12.7202C35.1082 12.7202 26.1427 11.9257 22.028 17.7926C18.4542 22.9784 18.3212 30.2858 19.3765 36.4844C21.4959 25.2658 29.8849 19.626 30.3017 19.3466L32.0931 22.0094C31.6763 22.2713 22.0191 28.8366 22.1255 41.9496C28.9804 30.216 39.2849 30.2422 39.2849 18.7005V12.7202V12.7202Z" fill="white"/>
<path d="M54.5265 14.1577V3.8558H59.5597C60.8548 3.8558 61.8261 4.10109 62.4736 4.59165C63.131 5.08222 63.4597 5.72977 63.4597 6.53429C63.4597 7.07392 63.3272 7.54486 63.0623 7.94712C62.7974 8.33958 62.4344 8.64373 61.9733 8.85958C61.5121 9.07543 60.9823 9.18335 60.3838 9.18335L60.6635 8.57995C61.311 8.57995 61.885 8.68788 62.3853 8.90373C62.8857 9.10977 63.2733 9.41882 63.548 9.8309C63.8325 10.243 63.9748 10.7483 63.9748 11.3467C63.9748 12.2298 63.6265 12.9215 62.9299 13.4218C62.2333 13.9124 61.208 14.1577 59.854 14.1577H54.5265ZM56.8959 12.3622H59.6774C60.2955 12.3622 60.7616 12.2641 61.0755 12.0679C61.3993 11.8618 61.5612 11.5381 61.5612 11.0966C61.5612 10.6649 61.3993 10.346 61.0755 10.14C60.7616 9.92411 60.2955 9.81618 59.6774 9.81618H56.7193V8.07958H59.2653C59.8442 8.07958 60.2857 7.98146 60.5899 7.78524C60.9038 7.5792 61.0608 7.27014 61.0608 6.85807C61.0608 6.4558 60.9038 6.15656 60.5899 5.96033C60.2857 5.75429 59.8442 5.65127 59.2653 5.65127H56.8959V12.3622Z" fill="white"/>
<path d="M70.3568 14.3343C68.8949 14.3343 67.7519 13.9271 66.9277 13.1128C66.1036 12.2984 65.6915 11.1358 65.6915 9.62486V3.8558H68.0756V9.53656C68.0756 10.5177 68.2768 11.2241 68.679 11.6558C69.0813 12.0875 69.6455 12.3034 70.3715 12.3034C71.0975 12.3034 71.6617 12.0875 72.0639 11.6558C72.4662 11.2241 72.6673 10.5177 72.6673 9.53656V3.8558H75.0221V9.62486C75.0221 11.1358 74.61 12.2984 73.7858 13.1128C72.9617 13.9271 71.8187 14.3343 70.3568 14.3343Z" fill="white"/>
<path d="M76.057 14.1577L80.4868 8.05014V9.78675L76.2483 3.8558H78.9562L81.8849 7.99127L80.7517 8.00599L83.6362 3.8558H86.2264L82.0173 9.68373V7.97656L86.4766 14.1577H83.7245L80.6928 9.78675H81.7819L78.7943 14.1577H76.057Z" fill="white"/>
<path d="M92.3704 14.3343C91.5561 14.3343 90.8006 14.2018 90.104 13.9369C89.4172 13.672 88.8187 13.2992 88.3085 12.8184C87.8081 12.3377 87.4157 11.7735 87.1311 11.126C86.8564 10.4784 86.7191 9.77203 86.7191 9.00675C86.7191 8.24146 86.8564 7.53505 87.1311 6.8875C87.4157 6.23995 87.813 5.6758 88.3232 5.19505C88.8334 4.71429 89.4319 4.34146 90.1187 4.07656C90.8055 3.81165 91.5511 3.6792 92.3557 3.6792C93.17 3.6792 93.9157 3.81165 94.5927 4.07656C95.2794 4.34146 95.873 4.71429 96.3734 5.19505C96.8836 5.6758 97.281 6.23995 97.5655 6.8875C97.85 7.52524 97.9923 8.23165 97.9923 9.00675C97.9923 9.77203 97.85 10.4834 97.5655 11.1407C97.281 11.7883 96.8836 12.3524 96.3734 12.8332C95.873 13.3041 95.2794 13.672 94.5927 13.9369C93.9157 14.2018 93.1749 14.3343 92.3704 14.3343ZM92.3557 12.3034C92.8168 12.3034 93.2387 12.2249 93.6213 12.0679C94.0138 11.9109 94.3572 11.6852 94.6515 11.3909C94.9459 11.0966 95.1715 10.7483 95.3285 10.346C95.4953 9.94373 95.5787 9.49731 95.5787 9.00675C95.5787 8.51618 95.4953 8.06977 95.3285 7.6675C95.1715 7.26524 94.9459 6.91694 94.6515 6.6226C94.367 6.32826 94.0285 6.1026 93.6361 5.94561C93.2436 5.78863 92.8168 5.71014 92.3557 5.71014C91.8945 5.71014 91.4678 5.78863 91.0753 5.94561C90.6927 6.1026 90.3542 6.32826 90.0598 6.6226C89.7655 6.91694 89.5349 7.26524 89.3681 7.6675C89.2111 8.06977 89.1327 8.51618 89.1327 9.00675C89.1327 9.4875 89.2111 9.93392 89.3681 10.346C89.5349 10.7483 89.7606 11.0966 90.0451 11.3909C90.3394 11.6852 90.6828 11.9109 91.0753 12.0679C91.4678 12.2249 91.8945 12.3034 92.3557 12.3034Z" fill="white"/>
<path d="M99.7841 14.1577V3.8558H104.243C105.166 3.8558 105.96 4.00788 106.627 4.31203C107.295 4.60637 107.81 5.03316 108.173 5.59241C108.536 6.15165 108.717 6.81882 108.717 7.59392C108.717 8.3592 108.536 9.02146 108.173 9.58071C107.81 10.1301 107.295 10.552 106.627 10.8464C105.96 11.1407 105.166 11.2879 104.243 11.2879H101.109L102.168 10.243V14.1577H99.7841ZM106.333 14.1577L103.758 10.4196H106.304L108.909 14.1577H106.333ZM102.168 10.5079L101.109 9.38939H104.111C104.847 9.38939 105.396 9.23241 105.759 8.91844C106.122 8.59467 106.304 8.15316 106.304 7.59392C106.304 7.02486 106.122 6.58335 105.759 6.26939C105.396 5.95543 104.847 5.79844 104.111 5.79844H101.109L102.168 4.66524V10.5079Z" fill="white"/>
<path d="M115.61 14.3343C114.796 14.3343 114.04 14.2018 113.344 13.9369C112.657 13.672 112.058 13.2992 111.548 12.8184C111.048 12.3377 110.655 11.7735 110.371 11.126C110.096 10.4784 109.959 9.77203 109.959 9.00675C109.959 8.24146 110.096 7.53505 110.371 6.8875C110.655 6.23995 111.053 5.6758 111.563 5.19505C112.073 4.71429 112.672 4.34146 113.358 4.07656C114.045 3.81165 114.791 3.6792 115.595 3.6792C116.41 3.6792 117.155 3.81165 117.832 4.07656C118.519 4.34146 119.113 4.71429 119.613 5.19505C120.123 5.6758 120.521 6.23995 120.805 6.8875C121.09 7.52524 121.232 8.23165 121.232 9.00675C121.232 9.77203 121.09 10.4834 120.805 11.1407C120.521 11.7883 120.123 12.3524 119.613 12.8332C119.113 13.3041 118.519 13.672 117.832 13.9369C117.155 14.2018 116.415 14.3343 115.61 14.3343ZM115.595 12.3034C116.056 12.3034 116.478 12.2249 116.861 12.0679C117.253 11.9109 117.597 11.6852 117.891 11.3909C118.185 11.0966 118.411 10.7483 118.568 10.346C118.735 9.94373 118.818 9.49731 118.818 9.00675C118.818 8.51618 118.735 8.06977 118.568 7.6675C118.411 7.26524 118.185 6.91694 117.891 6.6226C117.607 6.32826 117.268 6.1026 116.876 5.94561C116.483 5.78863 116.056 5.71014 115.595 5.71014C115.134 5.71014 114.707 5.78863 114.315 5.94561C113.932 6.1026 113.594 6.32826 113.299 6.6226C113.005 6.91694 112.775 7.26524 112.608 7.6675C112.451 8.06977 112.372 8.51618 112.372 9.00675C112.372 9.4875 112.451 9.93392 112.608 10.346C112.775 10.7483 113 11.0966 113.285 11.3909C113.579 11.6852 113.922 11.9109 114.315 12.0679C114.707 12.2249 115.134 12.3034 115.595 12.3034Z" fill="white"/>
<path d="M130.282 14.1577L125.838 3.8558H128.413L132.298 12.9803H130.783L134.727 3.8558H137.096L132.637 14.1577H130.282Z" fill="white"/>
<path d="M137.956 14.1577V3.8558H140.34V14.1577H137.956Z" fill="white"/>
<path d="M142.785 14.1577V3.8558H145.169V12.215H150.335V14.1577H142.785Z" fill="white"/>
<path d="M156.498 14.3343C155.684 14.3343 154.929 14.2018 154.232 13.9369C153.545 13.672 152.947 13.2992 152.437 12.8184C151.936 12.3377 151.544 11.7735 151.259 11.126C150.985 10.4784 150.847 9.77203 150.847 9.00675C150.847 8.24146 150.985 7.53505 151.259 6.8875C151.544 6.23995 151.941 5.6758 152.451 5.19505C152.962 4.71429 153.56 4.34146 154.247 4.07656C154.934 3.81165 155.679 3.6792 156.484 3.6792C157.298 3.6792 158.044 3.81165 158.721 4.07656C159.408 4.34146 160.001 4.71429 160.502 5.19505C161.012 5.6758 161.409 6.23995 161.694 6.8875C161.978 7.52524 162.12 8.23165 162.12 9.00675C162.12 9.77203 161.978 10.4834 161.694 11.1407C161.409 11.7883 161.012 12.3524 160.502 12.8332C160.001 13.3041 159.408 13.672 158.721 13.9369C158.044 14.2018 157.303 14.3343 156.498 14.3343ZM156.484 12.3034C156.945 12.3034 157.367 12.2249 157.749 12.0679C158.142 11.9109 158.485 11.6852 158.78 11.3909C159.074 11.0966 159.3 10.7483 159.457 10.346C159.623 9.94373 159.707 9.49731 159.707 9.00675C159.707 8.51618 159.623 8.06977 159.457 7.6675C159.3 7.26524 159.074 6.91694 158.78 6.6226C158.495 6.32826 158.157 6.1026 157.764 5.94561C157.372 5.78863 156.945 5.71014 156.484 5.71014C156.023 5.71014 155.596 5.78863 155.203 5.94561C154.821 6.1026 154.482 6.32826 154.188 6.6226C153.894 6.91694 153.663 7.26524 153.496 7.6675C153.339 8.06977 153.261 8.51618 153.261 9.00675C153.261 9.4875 153.339 9.93392 153.496 10.346C153.663 10.7483 153.889 11.0966 154.173 11.3909C154.468 11.6852 154.811 11.9109 155.203 12.0679C155.596 12.2249 156.023 12.3034 156.484 12.3034Z" fill="white"/>
<path d="M166.027 14.1577V9.94863L166.572 11.3909L162.039 3.8558H164.57L168.044 9.63958H166.587L170.075 3.8558H172.415L167.882 11.3909L168.412 9.94863V14.1577H166.027Z" fill="white"/>
<path d="M171.426 14.1577L176.017 3.8558H178.372L182.979 14.1577H180.477L176.709 5.0626H177.651L173.869 14.1577H171.426ZM173.722 11.9501L174.354 10.14H179.653L180.3 11.9501H173.722Z" fill="white"/>
<path d="M185.664 14.1577V5.79844H182.367V3.8558H191.345V5.79844H188.048V14.1577H185.664Z" fill="white"/>
<path d="M192.628 14.1577V3.8558H195.012V14.1577H192.628Z" fill="white"/>
<path d="M53.3491 30.7143L57.7789 24.6067V26.3434L53.5404 20.4124H56.2484L59.177 24.5479L58.0438 24.5626L60.9284 20.4124H63.5186L59.3095 26.2403V24.5332L63.7687 30.7143H61.0167L57.985 26.3434H59.074L56.0865 30.7143H53.3491Z" fill="white"/>
<path d="M63.1323 30.7143L67.724 20.4124H70.0788L74.6852 30.7143H72.1833L68.4157 21.6192H69.3576L65.5754 30.7143H63.1323ZM65.4282 28.5067L66.061 26.6966H71.3591L72.0067 28.5067H65.4282Z" fill="white"/>
<path d="M75.754 30.7143V20.4124H78.1382V28.7717H83.3038V30.7143H75.754Z" fill="white"/>
<path d="M89.4525 30.8909C88.648 30.8909 87.8974 30.7584 87.2008 30.4935C86.514 30.2286 85.9155 29.8558 85.4054 29.3751C84.905 28.8943 84.5125 28.3301 84.228 27.6826C83.9533 27.0351 83.8159 26.3286 83.8159 25.5634C83.8159 24.7981 83.9533 24.0917 84.228 23.4441C84.5125 22.7966 84.9099 22.2324 85.4201 21.7517C85.9303 21.2709 86.5287 20.8981 87.2155 20.6332C87.9023 20.3683 88.648 20.2358 89.4525 20.2358C90.2669 20.2358 91.0125 20.3683 91.6895 20.6332C92.3763 20.8981 92.9699 21.2709 93.4703 21.7517C93.9804 22.2226 94.3778 22.7818 94.6623 23.4294C94.9469 24.0769 95.0891 24.7883 95.0891 25.5634C95.0891 26.3286 94.9469 27.04 94.6623 27.6973C94.3778 28.3449 93.9804 28.909 93.4703 29.3898C92.9699 29.8607 92.3763 30.2286 91.6895 30.4935C91.0125 30.7584 90.2669 30.8909 89.4525 30.8909ZM92.8227 33.0837C92.4204 33.0837 92.0378 33.0396 91.6748 32.9513C91.3216 32.863 90.9684 32.7207 90.6152 32.5245C90.2718 32.3283 89.9087 32.0634 89.5261 31.7298C89.1533 31.3962 88.7461 30.9841 88.3046 30.4935L90.8065 29.8607C91.0714 30.2237 91.3167 30.5132 91.5423 30.729C91.768 30.9449 91.9838 31.0969 92.1899 31.1852C92.4057 31.2735 92.6314 31.3177 92.8669 31.3177C93.4948 31.3177 94.054 31.0626 94.5446 30.5524L95.6042 31.8181C94.9076 32.6618 93.9804 33.0837 92.8227 33.0837ZM89.4525 28.86C89.9137 28.86 90.3355 28.7815 90.7182 28.6245C91.1106 28.4675 91.454 28.2418 91.7484 27.9475C92.0427 27.6532 92.2684 27.3049 92.4254 26.9026C92.5921 26.4905 92.6755 26.0441 92.6755 25.5634C92.6755 25.0728 92.5921 24.6264 92.4254 24.2241C92.2684 23.8218 92.0427 23.4735 91.7484 23.1792C91.454 22.8849 91.1106 22.6592 90.7182 22.5022C90.3355 22.3452 89.9137 22.2667 89.4525 22.2667C88.9914 22.2667 88.5646 22.3452 88.1721 22.5022C87.7797 22.6592 87.4363 22.8849 87.142 23.1792C86.8574 23.4735 86.6318 23.8218 86.465 24.2241C86.308 24.6264 86.2295 25.0728 86.2295 25.5634C86.2295 26.0441 86.308 26.4905 86.465 26.9026C86.6318 27.3049 86.8574 27.6532 87.142 27.9475C87.4363 28.2418 87.7797 28.4675 88.1721 28.6245C88.5646 28.7815 88.9914 28.86 89.4525 28.86Z" fill="white"/>
<path d="M103.183 30.7143V22.3551H99.8862V20.4124H108.864V22.3551H105.567V30.7143H103.183Z" fill="white"/>
<path d="M108.275 30.7143L112.867 20.4124H115.221L119.828 30.7143H117.326L113.558 21.6192H114.5L110.718 30.7143H108.275ZM110.571 28.5067L111.204 26.6966H116.502L117.149 28.5067H110.571Z" fill="white"/>
<path d="M119.791 24.6803L120.763 21.1483L121.086 22.4875C120.664 22.4875 120.316 22.3649 120.041 22.1196C119.777 21.8645 119.644 21.5211 119.644 21.0894C119.644 20.6675 119.781 20.329 120.056 20.0739C120.331 19.809 120.669 19.6766 121.072 19.6766C121.484 19.6766 121.822 19.809 122.087 20.0739C122.352 20.329 122.484 20.6675 122.484 21.0894C122.484 21.2169 122.475 21.3445 122.455 21.472C122.445 21.5898 122.411 21.732 122.352 21.8988C122.303 22.0656 122.22 22.2864 122.102 22.5611L121.248 24.6803H119.791Z" fill="white"/>
<path d="M124.202 30.7143V20.4124H126.586V28.7717H131.752V30.7143H124.202Z" fill="white"/>
<path d="M133.084 30.7143V20.4124H135.468V30.7143H133.084Z" fill="white"/>
<path d="M137.913 30.7143V20.4124H139.885L144.271 27.6826H143.226L147.538 20.4124H149.495L149.525 30.7143H147.288L147.273 23.8415H147.685L144.241 29.6252H143.167L139.65 23.8415H140.15V30.7143H137.913Z" fill="white"/>
<path d="M151.969 30.7143V20.4124H154.353V30.7143H151.969Z" fill="white"/>
<path d="M54.5265 47.2709V36.969H59.5597C60.8548 36.969 61.8261 37.2143 62.4736 37.7049C63.131 38.1954 63.4597 38.843 63.4597 39.6475C63.4597 40.1871 63.3272 40.6581 63.0623 41.0603C62.7974 41.4528 62.4344 41.7569 61.9733 41.9728C61.5121 42.1886 60.9823 42.2966 60.3838 42.2966L60.6635 41.6932C61.311 41.6932 61.885 41.8011 62.3853 42.0169C62.8857 42.223 63.2733 42.532 63.548 42.9441C63.8325 43.3562 63.9748 43.8615 63.9748 44.46C63.9748 45.343 63.6265 46.0347 62.9299 46.535C62.2333 47.0256 61.208 47.2709 59.854 47.2709H54.5265ZM56.8959 45.4754H59.6774C60.2955 45.4754 60.7616 45.3773 61.0755 45.1811C61.3993 44.975 61.5612 44.6513 61.5612 44.2098C61.5612 43.7781 61.3993 43.4592 61.0755 43.2532C60.7616 43.0373 60.2955 42.9294 59.6774 42.9294H56.7193V41.1928H59.2653C59.8442 41.1928 60.2857 41.0947 60.5899 40.8984C60.9038 40.6924 61.0608 40.3834 61.0608 39.9713C61.0608 39.569 60.9038 39.2698 60.5899 39.0735C60.2857 38.8675 59.8442 38.7645 59.2653 38.7645H56.8959V45.4754Z" fill="white"/>
<path d="M70.7836 47.4475C69.9692 47.4475 69.2138 47.3151 68.5172 47.0501C67.8304 46.7852 67.2319 46.4124 66.7217 45.9317C66.2213 45.4509 65.8289 44.8867 65.5443 44.2392C65.2696 43.5917 65.1322 42.8852 65.1322 42.12C65.1322 41.3547 65.2696 40.6483 65.5443 40.0007C65.8289 39.3532 66.2262 38.789 66.7364 38.3083C67.2466 37.8275 67.8451 37.4547 68.5319 37.1898C69.2187 36.9249 69.9643 36.7924 70.7689 36.7924C71.5832 36.7924 72.3289 36.9249 73.0058 37.1898C73.6926 37.4547 74.2862 37.8275 74.7866 38.3083C75.2968 38.789 75.6941 39.3532 75.9787 40.0007C76.2632 40.6384 76.4055 41.3449 76.4055 42.12C76.4055 42.8852 76.2632 43.5966 75.9787 44.2539C75.6941 44.9015 75.2968 45.4656 74.7866 45.9464C74.2862 46.4173 73.6926 46.7852 73.0058 47.0501C72.3289 47.3151 71.5881 47.4475 70.7836 47.4475ZM70.7689 45.4166C71.23 45.4166 71.6519 45.3381 72.0345 45.1811C72.427 45.0241 72.7704 44.7984 73.0647 44.5041C73.359 44.2098 73.5847 43.8615 73.7417 43.4592C73.9085 43.0569 73.9919 42.6105 73.9919 42.12C73.9919 41.6294 73.9085 41.183 73.7417 40.7807C73.5847 40.3784 73.359 40.0301 73.0647 39.7358C72.7802 39.4415 72.4417 39.2158 72.0492 39.0588C71.6568 38.9018 71.23 38.8234 70.7689 38.8234C70.3077 38.8234 69.8809 38.9018 69.4885 39.0588C69.1058 39.2158 68.7673 39.4415 68.473 39.7358C68.1787 40.0301 67.9481 40.3784 67.7813 40.7807C67.6243 41.183 67.5458 41.6294 67.5458 42.12C67.5458 42.6007 67.6243 43.0471 67.7813 43.4592C67.9481 43.8615 68.1738 44.2098 68.4583 44.5041C68.7526 44.7984 69.096 45.0241 69.4885 45.1811C69.8809 45.3381 70.3077 45.4166 70.7689 45.4166Z" fill="white"/>
<path d="M81.5822 47.4475C80.758 47.4475 79.9682 47.3396 79.2127 47.1237C78.4572 46.8981 77.8489 46.6086 77.3878 46.2554L78.1972 44.46C78.6388 44.7739 79.1588 45.0339 79.7572 45.24C80.3656 45.4362 80.9788 45.5343 81.5969 45.5343C82.0678 45.5343 82.4456 45.4901 82.7301 45.4018C83.0244 45.3037 83.2403 45.1713 83.3776 45.0045C83.515 44.8377 83.5837 44.6464 83.5837 44.4305C83.5837 44.1558 83.4757 43.94 83.2599 43.783C83.044 43.6162 82.7595 43.4837 82.4063 43.3856C82.0531 43.2777 81.6606 43.1796 81.2289 43.0913C80.8071 42.9932 80.3803 42.8754 79.9486 42.7381C79.5267 42.6007 79.1391 42.4241 78.7859 42.2083C78.4327 41.9924 78.1433 41.7079 77.9176 41.3547C77.7018 41.0015 77.5939 40.5501 77.5939 40.0007C77.5939 39.412 77.7508 38.8773 78.0648 38.3966C78.3886 37.906 78.8693 37.5184 79.5071 37.2339C80.1546 36.9396 80.964 36.7924 81.9354 36.7924C82.5829 36.7924 83.2206 36.8709 83.8486 37.0279C84.4765 37.1751 85.0308 37.4007 85.5116 37.7049L84.7757 39.515C84.295 39.2403 83.8142 39.0392 83.3335 38.9117C82.8527 38.7743 82.3818 38.7056 81.9206 38.7056C81.4595 38.7056 81.0818 38.7596 80.7874 38.8675C80.4931 38.9754 80.2822 39.1177 80.1546 39.2943C80.0271 39.4611 79.9633 39.6573 79.9633 39.883C79.9633 40.1479 80.0712 40.3637 80.2871 40.5305C80.5029 40.6875 80.7874 40.815 81.1406 40.9132C81.4939 41.0113 81.8814 41.1094 82.3033 41.2075C82.735 41.3056 83.1618 41.4184 83.5837 41.546C84.0154 41.6735 84.4078 41.8452 84.761 42.0611C85.1142 42.2769 85.3988 42.5615 85.6146 42.9147C85.8403 43.2679 85.9531 43.7143 85.9531 44.2539C85.9531 44.8328 85.7912 45.3626 85.4674 45.8434C85.1437 46.3241 84.658 46.7117 84.0105 47.006C83.3727 47.3003 82.5633 47.4475 81.5822 47.4475Z" fill="white"/>
<path d="M94.6463 36.969H97.0305V47.2709H94.6463V36.969ZM89.9664 47.2709H87.5822V36.969H89.9664V47.2709ZM94.823 43.0471H89.7897V41.0309H94.823V43.0471Z" fill="white"/>
<path d="M104.457 47.4475C103.652 47.4475 102.902 47.3151 102.205 47.0501C101.518 46.7852 100.92 46.4124 100.41 45.9317C99.9094 45.4509 99.5169 44.8867 99.2324 44.2392C98.9577 43.5917 98.8203 42.8852 98.8203 42.12C98.8203 41.3547 98.9577 40.6483 99.2324 40.0007C99.5169 39.3532 99.9143 38.789 100.424 38.3083C100.935 37.8275 101.533 37.4547 102.22 37.1898C102.907 36.9249 103.652 36.7924 104.457 36.7924C105.271 36.7924 106.017 36.9249 106.694 37.1898C107.381 37.4547 107.974 37.8275 108.475 38.3083C108.985 38.7792 109.382 39.3384 109.667 39.986C109.951 40.6335 110.094 41.3449 110.094 42.12C110.094 42.8852 109.951 43.5966 109.667 44.2539C109.382 44.9015 108.985 45.4656 108.475 45.9464C107.974 46.4173 107.381 46.7852 106.694 47.0501C106.017 47.3151 105.271 47.4475 104.457 47.4475ZM107.827 49.6403C107.425 49.6403 107.042 49.5962 106.679 49.5079C106.326 49.4196 105.973 49.2773 105.62 49.0811C105.276 48.8849 104.913 48.62 104.531 48.2864C104.158 47.9528 103.751 47.5407 103.309 47.0501L105.811 46.4173C106.076 46.7803 106.321 47.0698 106.547 47.2856C106.772 47.5015 106.988 47.6535 107.194 47.7418C107.41 47.8301 107.636 47.8743 107.871 47.8743C108.499 47.8743 109.058 47.6192 109.549 47.109L110.609 48.3747C109.912 49.2184 108.985 49.6403 107.827 49.6403ZM104.457 45.4166C104.918 45.4166 105.34 45.3381 105.723 45.1811C106.115 45.0241 106.458 44.7984 106.753 44.5041C107.047 44.2098 107.273 43.8615 107.43 43.4592C107.597 43.0471 107.68 42.6007 107.68 42.12C107.68 41.6294 107.597 41.183 107.43 40.7807C107.273 40.3784 107.047 40.0301 106.753 39.7358C106.458 39.4415 106.115 39.2158 105.723 39.0588C105.34 38.9018 104.918 38.8234 104.457 38.8234C103.996 38.8234 103.569 38.9018 103.177 39.0588C102.784 39.2158 102.441 39.4415 102.146 39.7358C101.862 40.0301 101.636 40.3784 101.469 40.7807C101.312 41.183 101.234 41.6294 101.234 42.12C101.234 42.6007 101.312 43.0471 101.469 43.4592C101.636 43.8615 101.862 44.2098 102.146 44.5041C102.441 44.7984 102.784 45.0241 103.177 45.1811C103.569 45.3381 103.996 45.4166 104.457 45.4166Z" fill="white"/>
<path d="M110.388 47.2709L114.979 36.969H117.334L121.94 47.2709H119.439L115.671 38.1758H116.613L112.831 47.2709H110.388ZM112.684 45.0634L113.316 43.2532H118.614L119.262 45.0634H112.684Z" fill="white"/>
<path d="M123.009 47.2709V36.969H127.469C128.391 36.969 129.186 37.1211 129.853 37.4252C130.52 37.7196 131.035 38.1464 131.398 38.7056C131.761 39.2649 131.943 39.932 131.943 40.7071C131.943 41.4724 131.761 42.1347 131.398 42.6939C131.035 43.2434 130.52 43.6652 129.853 43.9596C129.186 44.2539 128.391 44.4011 127.469 44.4011H124.334L125.393 43.3562V47.2709H123.009ZM129.558 47.2709L126.983 43.5328H129.529L132.134 47.2709H129.558ZM125.393 43.6211L124.334 42.5026H127.336C128.072 42.5026 128.621 42.3456 128.984 42.0317C129.347 41.7079 129.529 41.2664 129.529 40.7071C129.529 40.1381 129.347 39.6966 128.984 39.3826C128.621 39.0686 128.072 38.9117 127.336 38.9117H124.334L125.393 37.7784V43.6211Z" fill="white"/>
<path d="M133.831 47.2709V36.969H135.804L140.189 44.2392H139.144L143.456 36.969H145.414L145.443 47.2709H143.206L143.191 40.3981H143.604L140.16 46.1818H139.085L135.568 40.3981H136.068V47.2709H133.831Z" fill="white"/>
<path d="M146.533 47.2709L151.125 36.969H153.48L158.086 47.2709H155.584L151.817 38.1758H152.759L148.976 47.2709H146.533ZM148.829 45.0634L149.462 43.2532H154.76L155.408 45.0634H148.829Z" fill="white"/>
<path d="M162.54 47.4475C161.716 47.4475 160.926 47.3396 160.17 47.1237C159.415 46.8981 158.807 46.6086 158.346 46.2554L159.155 44.46C159.597 44.7739 160.117 45.0339 160.715 45.24C161.323 45.4362 161.937 45.5343 162.555 45.5343C163.026 45.5343 163.403 45.4901 163.688 45.4018C163.982 45.3037 164.198 45.1713 164.335 45.0045C164.473 44.8377 164.541 44.6464 164.541 44.4305C164.541 44.1558 164.434 43.94 164.218 43.783C164.002 43.6162 163.717 43.4837 163.364 43.3856C163.011 43.2777 162.618 43.1796 162.187 43.0913C161.765 42.9932 161.338 42.8754 160.906 42.7381C160.484 42.6007 160.097 42.4241 159.744 42.2083C159.39 41.9924 159.101 41.7079 158.875 41.3547C158.66 41.0015 158.552 40.5501 158.552 40.0007C158.552 39.412 158.709 38.8773 159.023 38.3966C159.346 37.906 159.827 37.5184 160.465 37.2339C161.112 36.9396 161.922 36.7924 162.893 36.7924C163.541 36.7924 164.178 36.8709 164.806 37.0279C165.434 37.1751 165.989 37.4007 166.469 37.7049L165.734 39.515C165.253 39.2403 164.772 39.0392 164.291 38.9117C163.81 38.7743 163.34 38.7056 162.878 38.7056C162.417 38.7056 162.04 38.7596 161.745 38.8675C161.451 38.9754 161.24 39.1177 161.112 39.2943C160.985 39.4611 160.921 39.6573 160.921 39.883C160.921 40.1479 161.029 40.3637 161.245 40.5305C161.461 40.6875 161.745 40.815 162.098 40.9132C162.452 41.0113 162.839 41.1094 163.261 41.2075C163.693 41.3056 164.12 41.4184 164.541 41.546C164.973 41.6735 165.366 41.8452 165.719 42.0611C166.072 42.2769 166.357 42.5615 166.572 42.9147C166.798 43.2679 166.911 43.7143 166.911 44.2539C166.911 44.8328 166.749 45.3626 166.425 45.8434C166.101 46.3241 165.616 46.7117 164.968 47.006C164.33 47.3003 163.521 47.4475 162.54 47.4475Z" fill="white"/>
<path d="M168.54 47.2709V36.969H170.924V47.2709H168.54Z" fill="white"/>
</svg>
