<?xml version="1.0" encoding="UTF-8"?>
<!DOCTYPE svg PUBLIC "-//W3C//DTD SVG 1.1//EN" "http://www.w3.org/Graphics/SVG/1.1/DTD/svg11.dtd">
<!-- Creator: CorelDRAW -->
<svg xmlns="http://www.w3.org/2000/svg" xml:space="preserve" width="35.5408mm" height="29.673mm" version="1.1" style="shape-rendering:geometricPrecision; text-rendering:geometricPrecision; image-rendering:optimizeQuality; fill-rule:evenodd; clip-rule:evenodd"
viewBox="0 0 3554.08 2967.3"
 xmlns:xlink="http://www.w3.org/1999/xlink"
 xmlns:xodm="http://www.corel.com/coreldraw/odm/2003">
 <defs>
  <style type="text/css">
   <![CDATA[
    .fil0 {fill:white}
    .fil1 {fill:white;fill-rule:nonzero}
   ]]>
  </style>
 </defs>
 <g id="Слой_x0020_1">
  <metadata id="CorelCorpID_0Corel-Layer"/>
  <g id="_2932871488112">
   <path class="fil0" d="M2405.19 343.57c0,1060.7 20.64,1061.76 -48.15,1061.76 -222.51,0 -393.44,-22.23 -552.44,136.53 -0.26,0 -9.53,5.82 -11.91,5.82 -89.96,0 -133.35,-142.35 -364.33,-142.35 -216.43,0 -277.55,16.14 -277.55,-48.42 0,-1187.44 -61.12,-1061.5 184.94,-1061.5 168.28,-385.23 716.22,-385.23 884.49,0 89.16,0 184.94,-19.84 184.94,48.15l0.01 0.01zm-955.4 -47.63c85.2,3.7 156.37,24.34 227.81,60.06 132.82,69.32 59,94.19 194.47,3.44 82.28,-42.86 157.15,-60.06 233.88,-63.5 17.99,0 -102.92,-193.68 -328.07,-193.68 -224.63,0 -345.55,193.68 -328.08,193.68l-0.01 0zm262.74 198.18c-123.82,-124.09 -355.07,-102.13 -465.4,-102.13l0 916.77 181.23 0c227.81,0 263.53,106.36 244.48,40.22 -81.76,-269.08 -122.24,-638.96 39.69,-854.86zm567.78 425.44c-80.96,80.7 -338.93,245 -428.35,464.61 152.92,-89.96 271.19,-75.41 456.93,-75.41 0,-519.38 12.17,-438.41 -28.58,-389.2zm28.58 -527.57c-124.62,0 -392.11,-24.08 -514.87,153.72 -106.63,157.16 -110.6,378.61 -79.11,566.46 63.24,-339.98 313.52,-510.9 325.96,-519.37l53.45 80.7c-12.44,7.94 -300.56,206.89 -297.38,604.3 204.51,-355.6 511.96,-354.81 511.96,-704.58l0 -181.24 -0.01 0.01z"/>
   <g>
    <polygon class="fil1" points="142.16,2080.81 1.4,1887.13 98.5,1887.14 190.58,2014.4 283.18,1887.14 380.55,1887.14 239.26,2080.82 382.14,2277.41 285.03,2277.4 190.57,2147.75 96.11,2277.4 -0.98,2277.4 "/>
    <path class="fil0" d="M549.09 1887.14l83.08 0 155.83 390.26 -86.51 0 -33.6 -84.93 -154.52 -0.01 -33.6 84.93 -87.05 0.01 156.37 -390.26zm96.57 237.86l-55.3 -148.43 -55.3 148.43 110.6 0z"/>
    <polygon class="fil1" points="834.83,1887.14 919.76,1887.14 919.76,2206.49 1098.62,2206.49 1098.62,2277.4 834.83,2277.4 "/>
    <path class="fil0" d="M1227.47 2253.58c-33.07,-15.61 -58.74,-38.36 -76.73,-68 -17.99,-29.64 -27.25,-64.29 -27.25,-104.25 0,-39.69 9.26,-74.88 27.52,-105.83 18.26,-30.69 43.13,-54.5 75.14,-71.44 31.75,-16.93 67.2,-25.4 106.36,-25.4 38.89,0 74.35,8.47 105.83,25.4 31.22,16.93 56.09,40.75 74.35,71.44 18.26,30.96 27.52,66.15 27.52,105.83 0,24.61 -5.82,48.42 -17.2,71.7 -11.38,23.02 -25.4,41.28 -42.6,55.03l68 0.01 0 69.32 -205.32 0.01c-43.92,0 -82.55,-7.94 -115.62,-23.81l0 -0.01zm167.48 -64.56c18.26,-9.53 32.54,-23.55 43.13,-42.07 10.32,-18.26 15.61,-39.95 15.61,-65.09 0,-24.87 -5.29,-46.57 -16.14,-65.35 -10.58,-18.79 -24.87,-33.34 -43.39,-43.39 -18.52,-10.05 -39.16,-15.08 -61.65,-15.08 -23.28,0 -43.92,5.03 -62.44,15.08 -18.26,10.05 -33.07,24.61 -43.66,43.39 -10.85,18.79 -16.14,40.48 -16.14,65.35 0,38.1 11.11,67.73 33.6,89.16 22.49,21.43 52.12,32.01 88.64,32.01 23.28,0 44.19,-4.5 62.44,-14.02l0 0.01z"/>
    <polygon class="fil1" points="1874.64,1958.04 1760.61,1958.04 1760.61,1887.13 2073.34,1887.14 2073.34,1958.05 1959.57,1958.04 1959.57,2277.39 1874.64,2277.4 1874.64,1958.05 "/>
    <path class="fil0" d="M2186.06 1887.14l83.33 0 155.84 390.26 -86.52 0 -33.6 -84.93 -154.77 -0.01 -33.34 84.93 -87.05 0.01 156.1 -390.26 0.01 0zm96.82 237.86l-55.29 -148.43 -55.3 148.43 110.59 0z"/>
    <polygon class="fil1" points="2386.07,1894.01 2481.32,1894.01 2516.77,1985.56 2432.9,1985.56 "/>
    <polygon class="fil1" points="2558.84,1887.14 2643.51,1887.14 2643.51,2206.49 2822.37,2206.49 2822.37,2277.4 2558.84,2277.4 "/>
    <polygon class="fil1" points="2858.62,1887.14 2943.28,1887.14 2943.28,2277.4 2858.62,2277.4 "/>
    <polygon class="fil1" points="3002.02,1887.14 3085.89,1887.14 3205.75,2148.55 3326.4,1887.14 3409.74,1887.14 3409.74,2277.4 3328.78,2277.4 3328.78,2055.68 3225.33,2277.4 3186.17,2277.4 3083.51,2055.68 3083.51,2277.4 3002.02,2277.4 "/>
    <polygon class="fil1" points="3468.22,1887.14 3553.15,1887.14 3553.15,2277.4 3468.22,2277.4 "/>
   </g>
   <g>
    <polygon class="fil1" points="498.56,2575.04 589.05,2575.04 696.21,2852.59 804.16,2575.04 893.85,2575.04 738.28,2965.3 654.93,2965.3 "/>
    <path class="fil0" d="M1010.53 2575.04l83.34 0 155.83 390.26 -86.51 0 -33.6 -84.93 -154.78 0 -33.34 84.93 -87.05 0 156.1 -390.26 0.01 0zm96.57 237.86l-55.03 -148.43 -55.3 148.43 110.33 0z"/>
    <polygon class="fil1" points="1276.95,2908.95 1467.98,2645.95 1281.98,2645.95 1281.98,2575.04 1573.02,2575.04 1573.02,2631.93 1383.05,2894.4 1584.13,2894.39 1584.13,2965.3 1276.95,2965.3 1276.95,2908.94 "/>
    <polygon class="fil1" points="1631.5,2575.04 1716.43,2575.04 1716.43,2965.3 1631.5,2965.3 "/>
    <path class="fil0" d="M1774.9 2575.04l169.33 0c44.19,0 78.85,11.11 103.45,33.34 24.87,21.96 37.31,53.98 37.31,95.51 0,29.1 -6.88,53.71 -20.11,74.08 -13.49,20.37 -32.54,35.19 -57.15,44.45l74.35 142.88 -87.05 0 -68.79 -132.29 -66.41 0 0 132.29 -84.93 0 0 -390.26zm154.25 187.06c21.43,0 38.63,-4.76 51.06,-14.02 12.43,-9.26 18.79,-24.08 18.79,-44.19 0,-21.17 -6.09,-35.98 -18.52,-44.71 -12.17,-8.73 -29.37,-13.23 -51.33,-13.23l-69.32 0 0 116.15 69.32 0z"/>
    <polygon class="fil1" points="2132.35,2575.04 2217.28,2575.04 2217.28,2894.39 2395.88,2894.39 2395.88,2965.3 2132.35,2965.3 "/>
    <polygon class="fil1" points="2432.12,2575.04 2517.06,2575.04 2517.06,2965.3 2432.12,2965.3 "/>
    <path class="fil1" d="M2664.96 2948.9c-32.01,-16.67 -56.62,-40.22 -74.08,-70.64 -17.73,-30.43 -26.46,-66.41 -26.46,-107.69 0,-41.54 8.73,-77.52 26.46,-108.21 17.46,-30.69 42.07,-54.24 74.08,-70.91 32.01,-16.4 69.06,-24.87 110.59,-24.87 28.31,0 53.45,2.91 75.14,8.73 21.69,5.82 41.8,14.82 60.06,26.99l0 80.96c-16.4,-13.23 -35.19,-23.02 -56.09,-29.1 -21.17,-6.35 -44.98,-9.26 -71.7,-9.26 -25.14,0 -47.35,5.03 -67.46,15.35 -19.84,10.05 -35.45,24.87 -47.1,43.66 -11.64,19.05 -17.2,41.28 -17.2,66.68 0,25.66 5.29,47.89 15.88,67.2 10.58,19.05 25.4,33.87 44.98,44.45 19.31,10.32 41.53,15.61 66.93,15.61 23.02,0 43.13,-4.23 60.33,-12.44l0 -75.41 -63.25 -0.01 0 -62.44 145.26 0 0 188.12c-36.78,25.4 -85.46,38.1 -145.79,38.1 -41.53,0 -78.57,-8.47 -110.59,-24.87l0.01 0z"/>
    <polygon class="fil1" points="2968.69,2575.04 3053.62,2575.04 3053.62,2965.3 2968.69,2965.3 "/>
   </g>
  </g>
 </g>
</svg>
