<svg width="18" height="18" viewBox="0 0 18 18" fill="none" xmlns="http://www.w3.org/2000/svg">
<path d="M3.58497 11.4524L5.48997 11.2349C5.94747 11.1824 6.39747 11.3399 6.71997 11.6624L8.09997 13.0424C10.2225 11.9624 11.9625 10.2299 13.0425 8.09989L11.655 6.71239C11.3325 6.38989 11.175 5.93989 11.2275 5.48239L11.445 3.59239C11.535 2.83489 12.1725 2.26489 12.9375 2.26489H14.235C15.0825 2.26489 15.7875 2.96989 15.735 3.81739C15.3375 10.2224 10.215 15.3374 3.81747 15.7349C2.96997 15.7874 2.26497 15.0824 2.26497 14.2349V12.9374C2.25747 12.1799 2.82747 11.5424 3.58497 11.4524Z" fill="#F8F9FB"/>
</svg>
