<svg width="21" height="20" viewBox="0 0 21 20" fill="none" xmlns="http://www.w3.org/2000/svg">
<g clip-path="url(#clip0_188_10845)">
<path d="M1.125 12.375C1.29076 12.375 1.44973 12.4408 1.56694 12.5581C1.68415 12.6753 1.75 12.8342 1.75 13V16.125C1.75 16.4565 1.8817 16.7745 2.11612 17.0089C2.35054 17.2433 2.66848 17.375 3 17.375H18C18.3315 17.375 18.6495 17.2433 18.8839 17.0089C19.1183 16.7745 19.25 16.4565 19.25 16.125V13C19.25 12.8342 19.3158 12.6753 19.4331 12.5581C19.5503 12.4408 19.7092 12.375 19.875 12.375C20.0408 12.375 20.1997 12.4408 20.3169 12.5581C20.4342 12.6753 20.5 12.8342 20.5 13V16.125C20.5 16.788 20.2366 17.4239 19.7678 17.8928C19.2989 18.3616 18.663 18.625 18 18.625H3C2.33696 18.625 1.70107 18.3616 1.23223 17.8928C0.763392 17.4239 0.5 16.788 0.5 16.125V13C0.5 12.8342 0.565848 12.6753 0.683058 12.5581C0.800269 12.4408 0.95924 12.375 1.125 12.375Z" fill="#192640"/>
<path d="M10.0573 14.8175C10.1154 14.8757 10.1843 14.9219 10.2603 14.9534C10.3362 14.9849 10.4176 15.0011 10.4998 15.0011C10.582 15.0011 10.6634 14.9849 10.7394 14.9534C10.8153 14.9219 10.8843 14.8757 10.9423 14.8175L14.6923 11.0675C14.8097 10.9501 14.8756 10.791 14.8756 10.625C14.8756 10.459 14.8097 10.2999 14.6923 10.1825C14.575 10.0651 14.4158 9.99921 14.2498 9.99921C14.0838 9.99921 13.9247 10.0651 13.8073 10.1825L11.1248 12.8663V1.875C11.1248 1.70924 11.059 1.55027 10.9418 1.43306C10.8245 1.31585 10.6656 1.25 10.4998 1.25C10.3341 1.25 10.1751 1.31585 10.0579 1.43306C9.94066 1.55027 9.87481 1.70924 9.87481 1.875V12.8663L7.19231 10.1825C7.07496 10.0651 6.91578 9.99921 6.74981 9.99921C6.58384 9.99921 6.42467 10.0651 6.30731 10.1825C6.18995 10.2999 6.12402 10.459 6.12402 10.625C6.12402 10.791 6.18995 10.9501 6.30731 11.0675L10.0573 14.8175Z" fill="#192640"/>
</g>
<defs>
<clipPath id="clip0_188_10845">
<rect width="20" height="20" fill="white" transform="translate(0.5)"/>
</clipPath>
</defs>
</svg>
