<svg width="24" height="16" viewBox="0 0 24 16" fill="none" xmlns="http://www.w3.org/2000/svg">
<path d="M1.33341 1.99996C0.965224 1.99996 0.666748 1.70148 0.666748 1.33329C0.666748 0.965103 0.965225 0.666626 1.33341 0.666626H22.6667C23.0349 0.666626 23.3334 0.965103 23.3334 1.33329C23.3334 1.70148 23.0349 1.99996 22.6667 1.99996H1.33341ZM22.6667 7.33329C23.0349 7.33329 23.3334 7.63177 23.3334 7.99996C23.3334 8.36815 23.0349 8.66663 22.6667 8.66663H1.33341C0.965224 8.66663 0.666748 8.36815 0.666748 7.99996C0.666748 7.63177 0.965225 7.33329 1.33341 7.33329H22.6667ZM0.666748 14.6666C0.666748 14.2984 0.965225 14 1.33341 14H22.6667C23.0349 14 23.3334 14.2984 23.3334 14.6666C23.3334 15.0348 23.0349 15.3333 22.6667 15.3333H1.33341C0.965224 15.3333 0.666748 15.0348 0.666748 14.6666Z" fill="#192640"/>
</svg>
