<svg width="19" height="13" viewBox="0 0 19 13" fill="none" xmlns="http://www.w3.org/2000/svg">
<path d="M18.5385 6.31538C18.5077 6.25385 17.8692 4.83077 16.4385 3.40769C15.0077 1.98462 12.8385 0.5 9.5 0.5C6.16154 0.5 3.88461 2.07692 2.56154 3.40769C1.23846 4.73846 0.492307 6.25385 0.461537 6.31538C0.434687 6.37323 0.420776 6.43623 0.420776 6.5C0.420776 6.56377 0.434687 6.62677 0.461537 6.68462C0.492307 6.74615 1.13077 8.16923 2.56154 9.59231C3.99231 11.0154 6.16154 12.5 9.5 12.5C12.8385 12.5 15.1154 10.9231 16.4385 9.59231C17.7615 8.26154 18.5077 6.74615 18.5385 6.68462C18.5653 6.62677 18.5792 6.56377 18.5792 6.5C18.5792 6.43623 18.5653 6.37323 18.5385 6.31538ZM9.5 11.5769C7.08461 11.5769 4.97692 10.7 3.23846 8.96923C2.5054 8.2429 1.88566 7.41053 1.4 6.5C1.88566 5.58947 2.5054 4.7571 3.23846 4.03077C4.97692 2.3 7.08461 1.42308 9.5 1.42308C11.9154 1.42308 14.0231 2.3 15.7615 4.03077C16.4946 4.7571 17.1143 5.58947 17.6 6.5C17.1077 7.43846 14.6538 11.5769 9.5 11.5769ZM9.5 2.96154C8.80016 2.96154 8.11603 3.16907 7.53413 3.55788C6.95224 3.94669 6.4987 4.49932 6.23089 5.14589C5.96307 5.79246 5.893 6.50393 6.02953 7.19032C6.16606 7.87671 6.50307 8.50721 6.99793 9.00207C7.49279 9.49693 8.12328 9.83394 8.80968 9.97047C9.49607 10.107 10.2075 10.0369 10.8541 9.76911C11.5007 9.5013 12.0533 9.04776 12.4421 8.46586C12.8309 7.88397 13.0385 7.19984 13.0385 6.5C13.0385 5.56154 12.6657 4.66152 12.0021 3.99793C11.3385 3.33434 10.4385 2.96154 9.5 2.96154ZM9.5 9.11539C8.98272 9.11539 8.47707 8.962 8.04697 8.67461C7.61687 8.38723 7.28165 7.97876 7.0837 7.50086C6.88575 7.02296 6.83395 6.4971 6.93487 5.98976C7.03578 5.48243 7.28487 5.01641 7.65064 4.65064C8.01641 4.28488 8.48243 4.03578 8.98976 3.93487C9.4971 3.83395 10.023 3.88575 10.5009 4.0837C10.9788 4.28165 11.3872 4.61687 11.6746 5.04697C11.962 5.47707 12.1154 5.98273 12.1154 6.5C12.1134 7.19302 11.8372 7.85707 11.3471 8.34711C10.8571 8.83715 10.193 9.11336 9.5 9.11539Z" fill="#838A97"/>
</svg>
