<svg width="17" height="16" viewBox="0 0 17 16" fill="none" xmlns="http://www.w3.org/2000/svg">
<path d="M12.7429 10.3432C13.7113 9.02177 14.145 7.3834 13.9573 5.75589C13.7696 4.12838 12.9743 2.63176 11.7305 1.56544C10.4868 0.49912 8.88624 -0.0582551 7.24916 0.00482458C5.61208 0.0679042 4.05918 0.746787 2.90114 1.90565C1.74311 3.06452 1.06533 4.6179 1.00343 6.25503C0.941518 7.89215 1.50004 9.49229 2.56725 10.7353C3.63446 11.9783 5.13165 12.7725 6.75929 12.9591C8.38693 13.1456 10.025 12.7107 11.3457 11.7414H11.3447C11.3747 11.7814 11.4068 11.8194 11.4428 11.8564L15.2931 15.7068C15.4807 15.8944 15.7351 15.9999 16.0004 16C16.2657 16.0001 16.5201 15.8948 16.7078 15.7073C16.8955 15.5197 17.0009 15.2653 17.001 15C17.0011 14.7348 16.8958 14.4803 16.7083 14.2926L12.8579 10.4422C12.8221 10.406 12.7837 10.3726 12.7429 10.3422V10.3432ZM13.0009 6.49882C13.0009 7.22116 12.8586 7.93643 12.5822 8.60379C12.3058 9.27115 11.9006 9.87753 11.3898 10.3883C10.8791 10.8991 10.2727 11.3043 9.60532 11.5807C8.93796 11.8571 8.22269 11.9994 7.50035 11.9994C6.778 11.9994 6.06273 11.8571 5.39537 11.5807C4.72801 11.3043 4.12163 10.8991 3.61086 10.3883C3.10008 9.87753 2.69492 9.27115 2.41849 8.60379C2.14206 7.93643 1.99978 7.22116 1.99978 6.49882C1.99978 5.03998 2.5793 3.64089 3.61086 2.60933C4.64242 1.57777 6.04151 0.998251 7.50035 0.998251C8.95919 0.998251 10.3583 1.57777 11.3898 2.60933C12.4214 3.64089 13.0009 5.03998 13.0009 6.49882Z" fill="#192640"/>
</svg>
