<svg width="17" height="17" viewBox="0 0 17 17" fill="none" xmlns="http://www.w3.org/2000/svg">
<path d="M0.5 8.5C0.5 6.37827 1.34285 4.34344 2.84315 2.84315C4.34344 1.34285 6.37827 0.5 8.5 0.5C10.6217 0.5 12.6566 1.34285 14.1569 2.84315C15.6571 4.34344 16.5 6.37827 16.5 8.5C16.5 10.6217 15.6571 12.6566 14.1569 14.1569C12.6566 15.6571 10.6217 16.5 8.5 16.5C6.37827 16.5 4.34344 15.6571 2.84315 14.1569C1.34285 12.6566 0.5 10.6217 0.5 8.5ZM8 1.577C7.33 1.781 6.665 2.397 6.113 3.432C5.97 3.7 5.837 3.992 5.718 4.304C6.423 4.461 7.19 4.561 8 4.591V1.577ZM4.749 4.039C4.891 3.655 5.053 3.295 5.23 2.961C5.40291 2.63406 5.60259 2.32199 5.827 2.028C4.97567 2.3808 4.20225 2.898 3.551 3.55C3.913 3.734 4.314 3.899 4.749 4.04V4.039ZM4.009 8C4.045 6.93 4.197 5.913 4.445 4.992C3.9037 4.81889 3.37976 4.59559 2.88 4.325C2.08354 5.39435 1.61082 6.66987 1.518 8H4.008H4.009ZM5.409 5.259C5.17325 6.15477 5.03907 7.07422 5.009 8H8V5.591C7.09 5.561 6.217 5.446 5.409 5.259ZM9 5.59V8H11.99C11.9603 7.07426 11.8264 6.1548 11.591 5.259C10.783 5.446 9.91 5.56 9 5.591V5.59ZM5.01 9C5.045 9.987 5.186 10.914 5.409 11.741C6.26006 11.5479 7.12772 11.437 8 11.41V9H5.01ZM9 9V11.409C9.91 11.439 10.783 11.554 11.591 11.741C11.814 10.914 11.955 9.987 11.991 9H9ZM5.718 12.696C5.838 13.008 5.97 13.3 6.113 13.568C6.665 14.603 7.331 15.218 8 15.423V12.41C7.19 12.44 6.423 12.54 5.718 12.697V12.696ZM5.828 14.972C5.60323 14.6781 5.40321 14.366 5.23 14.039C5.04582 13.6904 4.88513 13.33 4.749 12.96C4.33763 13.0922 3.9371 13.256 3.551 13.45C4.20225 14.102 4.97567 14.6192 5.827 14.972H5.828ZM4.445 12.008C4.18538 11.0252 4.03876 10.016 4.008 9H1.518C1.61077 10.3301 2.0835 11.6057 2.88 12.675C3.35 12.417 3.875 12.193 4.445 12.008ZM11.173 14.972C12.0239 14.6194 12.797 14.1026 13.448 13.451C13.0622 13.2571 12.662 13.0932 12.251 12.961C12.1148 13.3306 11.9541 13.6908 11.77 14.039C11.5971 14.366 11.3975 14.678 11.173 14.972ZM9 12.409V15.423C9.67 15.219 10.335 14.603 10.887 13.568C11.03 13.3 11.163 13.008 11.282 12.696C10.5316 12.5315 9.76778 12.4357 9 12.41V12.409ZM12.555 12.008C13.125 12.193 13.65 12.417 14.12 12.675C14.9165 11.6057 15.3892 10.3301 15.482 9H12.992C12.9612 10.016 12.8146 11.0252 12.555 12.008ZM15.482 8C15.3892 6.66986 14.9165 5.39433 14.12 4.325C13.65 4.583 13.125 4.807 12.555 4.992C12.803 5.912 12.955 6.93 12.992 8H15.482ZM11.77 2.961C11.947 3.295 12.109 3.655 12.252 4.039C12.6627 3.90675 13.0626 3.74292 13.448 3.549C12.7969 2.89782 12.0238 2.38132 11.173 2.029C11.391 2.312 11.591 2.626 11.77 2.961ZM11.282 4.304C11.1684 4.00549 11.0365 3.71427 10.887 3.432C10.335 2.397 9.67 1.782 9 1.577V4.59C9.81 4.56 10.577 4.46 11.282 4.303V4.304Z" fill="#838A97"/>
</svg>
