<svg width="28" height="28" viewBox="0 0 28 28" fill="none" xmlns="http://www.w3.org/2000/svg">
<rect width="28" height="28" rx="4" fill="white" fill-opacity="0.15"/>
<path d="M14 21.875C12.4425 21.875 10.9199 21.4131 9.62489 20.5478C8.32985 19.6825 7.32049 18.4526 6.72445 17.0136C6.12841 15.5747 5.97246 13.9913 6.27632 12.4637C6.58018 10.9361 7.3302 9.53288 8.43154 8.43154C9.53288 7.3302 10.9361 6.58018 12.4637 6.27632C13.9913 5.97246 15.5747 6.12841 17.0136 6.72445C18.4526 7.32049 19.6825 8.32985 20.5478 9.62489C21.4131 10.9199 21.875 12.4425 21.875 14C21.875 16.0886 21.0453 18.0916 19.5685 19.5685C18.0916 21.0453 16.0886 21.875 14 21.875ZM14 7.25C12.665 7.25 11.3599 7.64588 10.2499 8.38758C9.13987 9.12928 8.27471 10.1835 7.76382 11.4169C7.25293 12.6503 7.11925 14.0075 7.3797 15.3169C7.64015 16.6262 8.28303 17.829 9.22703 18.773C10.171 19.717 11.3738 20.3599 12.6831 20.6203C13.9925 20.8808 15.3497 20.7471 16.5831 20.2362C17.8165 19.7253 18.8707 18.8601 19.6124 17.7501C20.3541 16.6401 20.75 15.335 20.75 14C20.75 12.2098 20.0388 10.4929 18.773 9.22703C17.5071 7.96116 15.7902 7.25 14 7.25Z" fill="#98D957"/>
<path d="M16.5819 17.375L13.4375 14.2306V8.9375H14.5625V13.7638L17.375 16.5819L16.5819 17.375Z" fill="#98D957"/>
</svg>
