<svg width="28" height="28" viewBox="0 0 28 28" fill="none" xmlns="http://www.w3.org/2000/svg">
<rect width="28" height="28" rx="4" fill="white" fill-opacity="0.15"/>
<path d="M20 8H8C7.175 8 6.5075 8.675 6.5075 9.5L6.5 18.5C6.5 19.325 7.175 20 8 20H20C20.825 20 21.5 19.325 21.5 18.5V9.5C21.5 8.675 20.825 8 20 8ZM19.25 18.5H8.75C8.3375 18.5 8 18.1625 8 17.75V11L13.205 14.255C13.6925 14.5625 14.3075 14.5625 14.795 14.255L20 11V17.75C20 18.1625 19.6625 18.5 19.25 18.5ZM14 13.25L8 9.5H20L14 13.25Z" fill="#98D957"/>
</svg>
