<svg width="157" height="156" viewBox="0 0 157 156" fill="none" xmlns="http://www.w3.org/2000/svg">
<rect x="0.5" width="156" height="156" rx="78" fill="white"/>
<g clip-path="url(#clip0_199_12660)">
<path fill-rule="evenodd" clip-rule="evenodd" d="M95.2797 47.268C95.2797 75.8189 95.829 75.8415 93.9856 75.8415C88.0113 75.8415 83.429 75.2453 79.1627 79.517C79.1552 79.517 78.8994 79.6755 78.8392 79.6755C76.4239 79.6755 75.2576 75.8415 69.0652 75.8415C63.2564 75.8415 61.6161 76.2717 61.6161 74.5434C61.6161 42.5812 59.9758 45.9698 66.5822 45.9698C71.0967 35.6076 85.7916 35.6 90.3137 45.9698C92.7064 45.9698 95.2797 45.434 95.2797 47.268ZM69.6445 45.9849C71.9244 46.083 73.8356 46.6415 75.7542 47.6C79.3208 49.4717 77.3343 50.1359 80.9686 47.6981C83.1807 46.5434 85.1897 46.083 87.2438 45.9849C87.7254 45.9849 84.4824 40.7774 78.4479 40.7774C72.4135 40.7774 69.1705 45.9849 69.6445 45.9849ZM76.6873 51.3132C73.3615 47.9849 67.1615 48.5661 64.2045 48.5661V73.2453H69.0652C75.1824 73.2453 76.138 76.1057 75.6263 74.3321C73.4368 67.0868 72.3458 57.1321 76.6873 51.3132ZM91.9239 62.7698C89.7569 64.9434 82.8346 69.3585 80.4268 75.2755C84.5351 72.8529 87.7103 73.2453 92.6914 73.2453C92.6914 59.268 93.0149 61.4415 91.9239 62.7698ZM92.6914 48.5661C89.3506 48.5661 82.1725 47.9246 78.8768 52.7095C76.0176 56.9359 75.9047 62.8981 76.7474 67.9547C78.4479 58.8076 85.1671 54.2038 85.4982 53.9774L86.9278 56.1434C86.5967 56.3623 78.8693 61.7208 78.9521 72.4076C84.4373 62.8378 92.6914 62.8604 92.6914 53.4491V48.5661Z" fill="#213D88"/>
<path d="M34.5427 93.9472L30.7731 88.7321H33.3765L35.852 92.1585L38.335 88.7321H40.9459L37.1537 93.9472L40.991 99.2378H38.3801L35.852 95.751L33.3163 99.2378H30.7129L34.5427 93.9472Z" fill="#213D88"/>
<path fill-rule="evenodd" clip-rule="evenodd" d="M45.4681 88.7321H47.7028L51.8788 99.2378H49.5613L48.6584 96.951H44.5125L43.6096 99.2378H41.2695L45.4681 88.7321ZM48.0639 95.1321L46.5741 91.1397L45.0919 95.1321H48.0639Z" fill="#213D88"/>
<path d="M53.1436 88.7321H55.4159V97.3283H60.2088V99.2378H53.1436V88.7321Z" fill="#213D88"/>
<path fill-rule="evenodd" clip-rule="evenodd" d="M63.6697 98.5962C62.7819 98.1736 62.0972 97.5623 61.6156 96.7623C61.1265 95.9698 60.8857 95.034 60.8857 93.9623C60.8857 92.8906 61.1265 91.9396 61.6156 91.117C62.1122 90.2868 62.7819 89.6453 63.6321 89.1925C64.4899 88.7321 65.4379 88.5057 66.4913 88.5057C67.5372 88.5057 68.4853 88.7321 69.328 89.1925C70.1707 89.6453 70.8404 90.2868 71.3294 91.117C71.8185 91.9396 72.0593 92.8906 72.0593 93.9623C72.0593 94.6264 71.9088 95.2679 71.6078 95.8868C71.2993 96.5057 70.9156 97.0038 70.4566 97.3736H72.285V99.2378H66.7697C65.5959 99.2378 64.5576 99.0264 63.6697 98.5962ZM68.1692 96.8529C68.6583 96.5962 69.0421 96.2264 69.3205 95.7283C69.5988 95.2302 69.7418 94.6491 69.7418 93.9774C69.7418 93.3057 69.5989 92.717 69.3129 92.2113C69.027 91.7057 68.6357 91.3208 68.1467 91.0491C67.6501 90.7774 67.1008 90.6415 66.4913 90.6415C65.8668 90.6415 65.31 90.7774 64.8209 91.0491C64.3243 91.3208 63.9331 91.7057 63.6396 92.2113C63.3537 92.717 63.2107 93.3057 63.2107 93.9774C63.2107 94.9962 63.5117 95.7962 64.1137 96.3774C64.7156 96.951 65.5132 97.2378 66.4913 97.2378C67.1158 97.2378 67.6802 97.1095 68.1692 96.8529Z" fill="#213D88"/>
<path d="M81.0353 90.6415H77.9805V88.7321H86.37V90.6415H83.3152V99.2378H81.0353V90.6415Z" fill="#213D88"/>
<path fill-rule="evenodd" clip-rule="evenodd" d="M89.3951 88.7321H91.6298L95.8133 99.2378H93.4883L92.5854 96.951H88.4395L87.5366 99.2378H85.2041L89.3951 88.7321ZM91.991 95.1321L90.5087 91.1397L89.0189 95.1321H91.991Z" fill="#213D88"/>
<path d="M94.7598 88.9132H97.318L98.2661 91.3811H96.0163L94.7598 88.9132Z" fill="#213D88"/>
<path d="M99.3945 88.7321H101.667V97.3283H106.467V99.2378H99.3945V88.7321Z" fill="#213D88"/>
<path d="M107.438 88.7321H109.718V99.2378H107.438V88.7321Z" fill="#213D88"/>
<path d="M111.291 88.7321H113.533L116.761 95.7661L119.997 88.7321H122.224V99.2378H120.057V93.268L117.28 99.2378H116.234L113.481 93.268V99.2378H111.291V88.7321Z" fill="#213D88"/>
<path d="M123.803 88.7321H126.075V99.2378H123.803V88.7321Z" fill="#213D88"/>
<path d="M43.7002 107.245H46.1305L49.0048 114.717L51.8941 107.245H54.3094L50.1259 117.751H47.8987L43.7002 107.245Z" fill="#213D88"/>
<path fill-rule="evenodd" clip-rule="evenodd" d="M57.4391 107.245H59.6738L63.8497 117.751H61.5323L60.6294 115.472H56.476L55.5806 117.751H53.248L57.4391 107.245ZM60.0274 113.653L58.5451 109.653L57.0629 113.653H60.0274Z" fill="#213D88"/>
<path d="M64.5879 116.234L69.7119 109.155H64.7233V107.245H72.526V108.777L67.4321 115.841H72.827V117.751H64.5879V116.234Z" fill="#213D88"/>
<path d="M74.0977 107.245H76.3775V117.751H74.0977V107.245Z" fill="#213D88"/>
<path fill-rule="evenodd" clip-rule="evenodd" d="M77.9502 107.245H82.4873C83.6762 107.245 84.6017 107.547 85.2713 108.143C85.9334 108.74 86.2645 109.6 86.2645 110.717C86.2645 111.502 86.0839 112.166 85.7228 112.709C85.3691 113.253 84.8575 113.653 84.1953 113.909L86.1893 117.751H83.8568L82.0133 114.189H80.2301V117.751H77.9502V107.245ZM82.0885 112.279C82.6679 112.279 83.1194 112.158 83.458 111.909C83.789 111.653 83.9546 111.26 83.9546 110.717C83.9546 110.151 83.7966 109.743 83.4655 109.509C83.1344 109.275 82.6754 109.155 82.0885 109.155H80.2301V112.279H82.0885Z" fill="#213D88"/>
<path d="M87.5361 107.245H89.816V115.841H94.6089V117.751H87.5361V107.245Z" fill="#213D88"/>
<path d="M95.5879 107.245H97.8602V117.751H95.5879V107.245Z" fill="#213D88"/>
<path d="M101.832 117.313C100.975 116.86 100.312 116.226 99.8384 115.411C99.3719 114.589 99.1387 113.623 99.1387 112.506C99.1387 111.396 99.3719 110.423 99.8384 109.6C100.312 108.77 100.975 108.136 101.832 107.69C102.69 107.245 103.683 107.019 104.797 107.019C105.557 107.019 106.227 107.102 106.813 107.253C107.4 107.411 107.935 107.653 108.424 107.985V110.166C107.987 109.804 107.483 109.54 106.919 109.374C106.354 109.207 105.715 109.124 104.993 109.124C104.323 109.124 103.721 109.26 103.187 109.54C102.653 109.811 102.231 110.211 101.923 110.717C101.614 111.23 101.456 111.826 101.456 112.506C101.456 113.2 101.599 113.804 101.885 114.317C102.171 114.838 102.57 115.23 103.089 115.509C103.608 115.796 104.21 115.932 104.887 115.932C105.504 115.932 106.046 115.826 106.505 115.6V113.577H104.812V111.894H108.71V116.958C107.716 117.638 106.415 117.977 104.797 117.977C103.683 117.977 102.69 117.758 101.832 117.313Z" fill="#213D88"/>
<path d="M109.981 107.245H112.261V117.751H109.981V107.245Z" fill="#213D88"/>
</g>
<defs>
<clipPath id="clip0_199_12660">
<rect width="96.3107" height="80" fill="white" transform="translate(30.3447 38)"/>
</clipPath>
</defs>
</svg>
