<svg width="105" height="28" viewBox="0 0 105 28" fill="none" xmlns="http://www.w3.org/2000/svg">
<path fill-rule="evenodd" clip-rule="evenodd" d="M22.4314 5.98906C22.4314 24.8353 22.7963 24.8541 21.5798 24.8541C17.6447 24.8541 14.622 24.4593 11.8099 27.2799C11.8052 27.2799 11.6415 27.3833 11.5994 27.3833C10.0085 27.3833 9.24111 24.8541 5.1563 24.8541C1.32883 24.8541 0.247969 25.1409 0.247969 23.9939C0.247969 2.89581 -0.832893 5.13348 3.51863 5.13348C6.49451 -1.71116 16.1848 -1.71116 19.1607 5.13348C20.7376 5.13348 22.4314 4.78091 22.4314 5.98906ZM5.5353 5.14288C7.04196 5.2087 8.30062 5.57538 9.56397 6.21001C11.9129 7.44167 10.6074 7.88356 13.0031 6.27112C14.4583 5.50956 15.7824 5.204 17.1394 5.14288C17.4575 5.14288 15.3192 1.70176 11.3373 1.70176C7.36481 1.70176 5.22648 5.14288 5.5353 5.14288ZM10.1816 8.66393C7.99181 6.45916 3.90231 6.84934 1.95115 6.84934V23.1383H5.1563C9.18497 23.1383 9.81664 25.0281 9.47975 23.8528C8.03392 19.0719 7.31802 12.4999 10.1816 8.66393ZM20.2229 16.2231C18.7911 17.6569 14.229 20.5762 12.6475 24.4781C15.352 22.8797 17.4435 23.1383 20.7282 23.1383C20.7282 13.9102 20.9434 15.3487 20.2229 16.2231ZM20.7282 6.84934C18.5244 6.84934 13.7938 6.42155 11.6228 9.58062C9.73709 12.373 9.66691 16.3077 10.2237 19.6454C11.342 13.6047 15.7684 10.5678 15.9883 10.4174L16.9335 11.8512C16.7136 11.9922 11.6181 15.5274 11.6742 22.5883C15.2911 16.2701 20.7282 16.2842 20.7282 10.0695V6.84934Z" fill="#213D88"/>
<path d="M28.7701 7.62322V2.07605H31.4259C32.1092 2.07605 32.6217 2.20813 32.9634 2.47228C33.3102 2.73643 33.4836 3.08511 33.4836 3.51832C33.4836 3.80888 33.4138 4.06247 33.274 4.27907C33.1342 4.49039 32.9427 4.65416 32.6994 4.77039C32.456 4.88662 32.1765 4.94473 31.8607 4.94473L32.0083 4.61983C32.3499 4.61983 32.6528 4.67794 32.9168 4.79416C33.1808 4.90511 33.3853 5.07152 33.5302 5.29341C33.6804 5.5153 33.7554 5.78737 33.7554 6.10964C33.7554 6.58511 33.5717 6.95756 33.2041 7.22699C32.8365 7.49115 32.2956 7.62322 31.5812 7.62322H28.7701ZM30.0203 6.65643H31.488C31.8141 6.65643 32.06 6.6036 32.2257 6.49794C32.3965 6.38699 32.4819 6.21266 32.4819 5.97492C32.4819 5.74247 32.3965 5.57077 32.2257 5.45983C32.06 5.3436 31.8141 5.28549 31.488 5.28549H29.9272V4.35039H31.2706C31.576 4.35039 31.8089 4.29756 31.9694 4.1919C32.1351 4.08096 32.2179 3.91454 32.2179 3.69266C32.2179 3.47605 32.1351 3.31492 31.9694 3.20926C31.8089 3.09832 31.576 3.04284 31.2706 3.04284H30.0203V6.65643Z" fill="#213D88"/>
<path d="M37.1228 7.71832C36.3515 7.71832 35.7484 7.49907 35.3135 7.06058C34.8787 6.62209 34.6612 5.99605 34.6612 5.18247V2.07605H35.9192V5.13492C35.9192 5.66322 36.0253 6.0436 36.2376 6.27605C36.4498 6.5085 36.7475 6.62473 37.1306 6.62473C37.5137 6.62473 37.8113 6.5085 38.0236 6.27605C38.2358 6.0436 38.342 5.66322 38.342 5.13492V2.07605H39.5844V5.18247C39.5844 5.99605 39.367 6.62209 38.9321 7.06058C38.4973 7.49907 37.8942 7.71832 37.1228 7.71832Z" fill="#213D88"/>
<path d="M40.1304 7.62322L42.4678 4.33454V5.26964L40.2314 2.07605H41.6602L43.2055 4.30284L42.6076 4.31077L44.1295 2.07605H45.4962L43.2754 5.21416V4.29492L45.6282 7.62322H44.1761L42.5765 5.26964H43.1511L41.5748 7.62322H40.1304Z" fill="#213D88"/>
<path d="M48.738 7.71832C48.3084 7.71832 47.9097 7.647 47.5422 7.50435C47.1798 7.36171 46.864 7.16096 46.5948 6.90209C46.3308 6.64322 46.1237 6.33945 45.9736 5.99077C45.8287 5.64209 45.7562 5.26171 45.7562 4.84964C45.7562 4.43756 45.8287 4.05718 45.9736 3.7085C46.1237 3.35983 46.3334 3.05605 46.6026 2.79718C46.8718 2.53832 47.1876 2.33756 47.55 2.19492C47.9123 2.05228 48.3058 1.98096 48.7303 1.98096C49.1599 1.98096 49.5534 2.05228 49.9106 2.19492C50.273 2.33756 50.5862 2.53832 50.8502 2.79718C51.1194 3.05605 51.329 3.35983 51.4792 3.7085C51.6293 4.0519 51.7044 4.43228 51.7044 4.84964C51.7044 5.26171 51.6293 5.64473 51.4792 5.99869C51.329 6.34737 51.1194 6.65115 50.8502 6.91001C50.5862 7.1636 50.273 7.36171 49.9106 7.50435C49.5534 7.647 49.1625 7.71832 48.738 7.71832ZM48.7303 6.62473C48.9736 6.62473 49.1962 6.58247 49.3981 6.49794C49.6052 6.41341 49.7863 6.2919 49.9416 6.13341C50.097 5.97492 50.216 5.78737 50.2989 5.57077C50.3869 5.35416 50.4309 5.11379 50.4309 4.84964C50.4309 4.58549 50.3869 4.34511 50.2989 4.1285C50.216 3.9119 50.097 3.72435 49.9416 3.56586C49.7915 3.40737 49.6129 3.28586 49.4058 3.20133C49.1988 3.11681 48.9736 3.07454 48.7303 3.07454C48.487 3.07454 48.2618 3.11681 48.0547 3.20133C47.8528 3.28586 47.6742 3.40737 47.5189 3.56586C47.3636 3.72435 47.2419 3.9119 47.1539 4.1285C47.0711 4.34511 47.0297 4.58549 47.0297 4.84964C47.0297 5.1085 47.0711 5.34888 47.1539 5.57077C47.2419 5.78737 47.361 5.97492 47.5111 6.13341C47.6664 6.2919 47.8476 6.41341 48.0547 6.49794C48.2618 6.58247 48.487 6.62473 48.7303 6.62473Z" fill="#213D88"/>
<path d="M52.6498 7.62322V2.07605H55.0026C55.4893 2.07605 55.9086 2.15794 56.2606 2.32171C56.6126 2.4802 56.8844 2.71001 57.076 3.01115C57.2675 3.31228 57.3633 3.67152 57.3633 4.08888C57.3633 4.50096 57.2675 4.85756 57.076 5.15869C56.8844 5.45454 56.6126 5.68171 56.2606 5.8402C55.9086 5.99869 55.4893 6.07794 55.0026 6.07794H53.3486L53.9077 5.5153V7.62322H52.6498ZM56.1053 7.62322L54.7464 5.61039H56.0898L57.4642 7.62322H56.1053ZM53.9077 5.65794L53.3486 5.05567H54.9328C55.321 5.05567 55.6109 4.97115 55.8025 4.80209C55.994 4.62775 56.0898 4.39001 56.0898 4.08888C56.0898 3.78247 55.994 3.54473 55.8025 3.37567C55.6109 3.20662 55.321 3.12209 54.9328 3.12209H53.3486L53.9077 2.5119V5.65794Z" fill="#213D88"/>
<path d="M61.0001 7.71832C60.5705 7.71832 60.1718 7.647 59.8043 7.50435C59.4419 7.36171 59.1261 7.16096 58.8569 6.90209C58.5929 6.64322 58.3858 6.33945 58.2357 5.99077C58.0908 5.64209 58.0183 5.26171 58.0183 4.84964C58.0183 4.43756 58.0908 4.05718 58.2357 3.7085C58.3858 3.35983 58.5955 3.05605 58.8647 2.79718C59.1339 2.53832 59.4497 2.33756 59.8121 2.19492C60.1744 2.05228 60.5679 1.98096 60.9924 1.98096C61.4221 1.98096 61.8155 2.05228 62.1727 2.19492C62.5351 2.33756 62.8483 2.53832 63.1123 2.79718C63.3815 3.05605 63.5911 3.35983 63.7413 3.7085C63.8914 4.0519 63.9665 4.43228 63.9665 4.84964C63.9665 5.26171 63.8914 5.64473 63.7413 5.99869C63.5911 6.34737 63.3815 6.65115 63.1123 6.91001C62.8483 7.1636 62.5351 7.36171 62.1727 7.50435C61.8155 7.647 61.4246 7.71832 61.0001 7.71832ZM60.9924 6.62473C61.2357 6.62473 61.4583 6.58247 61.6602 6.49794C61.8673 6.41341 62.0484 6.2919 62.2038 6.13341C62.3591 5.97492 62.4781 5.78737 62.561 5.57077C62.649 5.35416 62.693 5.11379 62.693 4.84964C62.693 4.58549 62.649 4.34511 62.561 4.1285C62.4781 3.9119 62.3591 3.72435 62.2038 3.56586C62.0536 3.40737 61.875 3.28586 61.6679 3.20133C61.4609 3.11681 61.2357 3.07454 60.9924 3.07454C60.7491 3.07454 60.5239 3.11681 60.3168 3.20133C60.1149 3.28586 59.9363 3.40737 59.781 3.56586C59.6257 3.72435 59.504 3.9119 59.416 4.1285C59.3332 4.34511 59.2918 4.58549 59.2918 4.84964C59.2918 5.1085 59.3332 5.34888 59.416 5.57077C59.504 5.78737 59.6231 5.97492 59.7732 6.13341C59.9285 6.2919 60.1097 6.41341 60.3168 6.49794C60.5239 6.58247 60.7491 6.62473 60.9924 6.62473Z" fill="#213D88"/>
<path d="M68.7417 7.62322L66.3966 2.07605H67.7555L69.8056 6.98926H69.0057L71.0868 2.07605H72.337L69.9842 7.62322H68.7417Z" fill="#213D88"/>
<path d="M72.7909 7.62322V2.07605H74.0488V7.62322H72.7909Z" fill="#213D88"/>
<path d="M75.3388 7.62322V2.07605H76.5968V6.57718H79.3224V7.62322H75.3388Z" fill="#213D88"/>
<path d="M82.5745 7.71832C82.1448 7.71832 81.7462 7.647 81.3786 7.50435C81.0162 7.36171 80.7005 7.16096 80.4313 6.90209C80.1672 6.64322 79.9602 6.33945 79.81 5.99077C79.6651 5.64209 79.5926 5.26171 79.5926 4.84964C79.5926 4.43756 79.6651 4.05718 79.81 3.7085C79.9602 3.35983 80.1698 3.05605 80.439 2.79718C80.7082 2.53832 81.024 2.33756 81.3864 2.19492C81.7488 2.05228 82.1422 1.98096 82.5667 1.98096C82.9964 1.98096 83.3898 2.05228 83.747 2.19492C84.1094 2.33756 84.4226 2.53832 84.6866 2.79718C84.9558 3.05605 85.1655 3.35983 85.3156 3.7085C85.4657 4.0519 85.5408 4.43228 85.5408 4.84964C85.5408 5.26171 85.4657 5.64473 85.3156 5.99869C85.1655 6.34737 84.9558 6.65115 84.6866 6.91001C84.4226 7.1636 84.1094 7.36171 83.747 7.50435C83.3898 7.647 82.999 7.71832 82.5745 7.71832ZM82.5667 6.62473C82.81 6.62473 83.0326 6.58247 83.2345 6.49794C83.4416 6.41341 83.6228 6.2919 83.7781 6.13341C83.9334 5.97492 84.0524 5.78737 84.1353 5.57077C84.2233 5.35416 84.2673 5.11379 84.2673 4.84964C84.2673 4.58549 84.2233 4.34511 84.1353 4.1285C84.0524 3.9119 83.9334 3.72435 83.7781 3.56586C83.6279 3.40737 83.4494 3.28586 83.2423 3.20133C83.0352 3.11681 82.81 3.07454 82.5667 3.07454C82.3234 3.07454 82.0982 3.11681 81.8911 3.20133C81.6892 3.28586 81.5106 3.40737 81.3553 3.56586C81.2 3.72435 81.0784 3.9119 80.9904 4.1285C80.9075 4.34511 80.8661 4.58549 80.8661 4.84964C80.8661 5.1085 80.9075 5.34888 80.9904 5.57077C81.0784 5.78737 81.1974 5.97492 81.3476 6.13341C81.5029 6.2919 81.6841 6.41341 81.8911 6.49794C82.0982 6.58247 82.3234 6.62473 82.5667 6.62473Z" fill="#213D88"/>
<path d="M87.6023 7.62322V5.35681L87.8896 6.13341L85.4979 2.07605H86.8335L88.6661 5.19039H87.8974L89.7377 2.07605H90.9724L88.5807 6.13341L88.8602 5.35681V7.62322H87.6023Z" fill="#213D88"/>
<path d="M90.4507 7.62322L92.8734 2.07605H94.1159L96.5464 7.62322H95.2263L93.2384 2.72586H93.7354L91.7397 7.62322H90.4507ZM91.662 6.43454L91.9959 5.45983H94.7914L95.1331 6.43454H91.662Z" fill="#213D88"/>
<path d="M97.9633 7.62322V3.12209H96.2239V2.07605H100.961V3.12209H99.2213V7.62322H97.9633Z" fill="#213D88"/>
<path d="M101.638 7.62322V2.07605H102.895V7.62322H101.638Z" fill="#213D88"/>
<path d="M28.1489 16.5383L30.4863 13.2496V14.1847L28.2499 10.9911H29.6787L31.224 13.2179L30.626 13.2259L32.148 10.9911H33.5147L31.2938 14.1293V13.21L33.6467 16.5383H32.1946L30.595 14.1847H31.1696L29.5933 16.5383H28.1489Z" fill="#213D88"/>
<path d="M33.3109 16.5383L35.7337 10.9911H36.9761L39.4066 16.5383H38.0866L36.0987 11.641H36.5956L34.6 16.5383H33.3109ZM34.5223 15.3496L34.8562 14.3749H37.6517L37.9934 15.3496H34.5223Z" fill="#213D88"/>
<path d="M39.9706 16.5383V10.9911H41.2286V15.4923H43.9542V16.5383H39.9706Z" fill="#213D88"/>
<path d="M47.1985 16.6334C46.774 16.6334 46.3779 16.5621 46.0104 16.4194C45.648 16.2768 45.3322 16.0761 45.063 15.8172C44.799 15.5583 44.5919 15.2545 44.4418 14.9059C44.2968 14.5572 44.2244 14.1768 44.2244 13.7647C44.2244 13.3527 44.2968 12.9723 44.4418 12.6236C44.5919 12.2749 44.8016 11.9711 45.0708 11.7123C45.34 11.4534 45.6558 11.2527 46.0181 11.11C46.3805 10.9674 46.774 10.8961 47.1985 10.8961C47.6281 10.8961 48.0216 10.9674 48.3788 11.11C48.7412 11.2527 49.0543 11.4534 49.3184 11.7123C49.5876 11.9659 49.7972 12.267 49.9474 12.6157C50.0975 12.9644 50.1725 13.3474 50.1725 13.7647C50.1725 14.1768 50.0975 14.5598 49.9474 14.9138C49.7972 15.2625 49.5876 15.5662 49.3184 15.8251C49.0543 16.0787 48.7412 16.2768 48.3788 16.4194C48.0216 16.5621 47.6281 16.6334 47.1985 16.6334ZM48.9767 17.8142C48.7644 17.8142 48.5625 17.7904 48.371 17.7428C48.1846 17.6953 47.9983 17.6187 47.8119 17.513C47.6307 17.4074 47.4392 17.2647 47.2373 17.0851C47.0406 16.9055 46.8257 16.6836 46.5928 16.4194L47.9129 16.0787C48.0526 16.2742 48.1821 16.43 48.3011 16.5462C48.4202 16.6625 48.5341 16.7444 48.6428 16.7919C48.7567 16.8394 48.8757 16.8632 49 16.8632C49.3313 16.8632 49.6264 16.7259 49.8852 16.4511L50.4443 17.1327C50.0768 17.587 49.5876 17.8142 48.9767 17.8142ZM47.1985 15.5398C47.4418 15.5398 47.6644 15.4976 47.8663 15.413C48.0733 15.3285 48.2545 15.207 48.4098 15.0485C48.5651 14.89 48.6842 14.7025 48.767 14.4859C48.855 14.264 48.899 14.0236 48.899 13.7647C48.899 13.5006 48.855 13.2602 48.767 13.0436C48.6842 12.827 48.5651 12.6394 48.4098 12.481C48.2545 12.3225 48.0733 12.201 47.8663 12.1164C47.6644 12.0319 47.4418 11.9896 47.1985 11.9896C46.9551 11.9896 46.73 12.0319 46.5229 12.1164C46.3158 12.201 46.1346 12.3225 45.9793 12.481C45.8292 12.6394 45.7101 12.827 45.6221 13.0436C45.5393 13.2602 45.4979 13.5006 45.4979 13.7647C45.4979 14.0236 45.5393 14.264 45.6221 14.4859C45.7101 14.7025 45.8292 14.89 45.9793 15.0485C46.1346 15.207 46.3158 15.3285 46.5229 15.413C46.73 15.4976 46.9551 15.5398 47.1985 15.5398Z" fill="#213D88"/>
<path d="M54.4431 16.5383V12.0372H52.7036V10.9911H57.4404V12.0372H55.701V16.5383H54.4431Z" fill="#213D88"/>
<path d="M57.1299 16.5383L59.5527 10.9911H60.7951L63.2256 16.5383H61.9055L59.9176 11.641H60.4146L58.4189 16.5383H57.1299ZM58.3413 15.3496L58.6752 14.3749H61.4707L61.8123 15.3496H58.3413Z" fill="#213D88"/>
<path d="M63.2063 13.2893L63.7188 11.3874L63.8897 12.1085C63.6671 12.1085 63.4833 12.0425 63.3383 11.9104C63.1986 11.773 63.1287 11.5881 63.1287 11.3557C63.1287 11.1285 63.2011 10.9462 63.3461 10.8089C63.491 10.6662 63.6696 10.5949 63.8819 10.5949C64.0993 10.5949 64.2779 10.6662 64.4177 10.8089C64.5575 10.9462 64.6274 11.1285 64.6274 11.3557C64.6274 11.4244 64.6222 11.493 64.6118 11.5617C64.6067 11.6251 64.5885 11.7017 64.5575 11.7915C64.5316 11.8813 64.4876 12.0002 64.4255 12.1481L63.9751 13.2893H63.2063Z" fill="#213D88"/>
<path d="M65.5337 16.5383V10.9911H66.7917V15.4923H69.5173V16.5383H65.5337Z" fill="#213D88"/>
<path d="M70.2201 16.5383V10.9911H71.4781V16.5383H70.2201Z" fill="#213D88"/>
<path d="M72.7681 16.5383V10.9911H73.8087L76.1227 14.9059H75.5714L77.8466 10.9911H78.8794L78.8949 16.5383H77.7146L77.7068 12.8376H77.9242L76.1072 15.9519H75.5403L73.6844 12.8376H73.9484V16.5383H72.7681Z" fill="#213D88"/>
<path d="M80.1845 16.5383V10.9911H81.4425V16.5383H80.1845Z" fill="#213D88"/>
<path d="M28.7701 25.4534V19.9062H31.4259C32.1092 19.9062 32.6217 20.0383 32.9634 20.3025C33.3102 20.5666 33.4836 20.9153 33.4836 21.3485C33.4836 21.6391 33.4138 21.8927 33.274 22.1093C33.1342 22.3206 32.9427 22.4844 32.6994 22.6006C32.456 22.7168 32.1765 22.7749 31.8607 22.7749L32.0083 22.45C32.3499 22.45 32.6528 22.5081 32.9168 22.6244C33.1808 22.7353 33.3853 22.9017 33.5302 23.1236C33.6804 23.3455 33.7554 23.6176 33.7554 23.9398C33.7554 24.4153 33.5717 24.7878 33.2041 25.0572C32.8365 25.3213 32.2956 25.4534 31.5812 25.4534H28.7701ZM30.0203 24.4866H31.488C31.8141 24.4866 32.06 24.4338 32.2257 24.3281C32.3965 24.2172 32.4819 24.0428 32.4819 23.8051C32.4819 23.5727 32.3965 23.401 32.2257 23.29C32.06 23.1738 31.8141 23.1157 31.488 23.1157H29.9272V22.1806H31.2706C31.576 22.1806 31.8089 22.1278 31.9694 22.0221C32.1351 21.9111 32.2179 21.7447 32.2179 21.5228C32.2179 21.3062 32.1351 21.1451 31.9694 21.0394C31.8089 20.9285 31.576 20.873 31.2706 20.873H30.0203V24.4866Z" fill="#213D88"/>
<path d="M37.348 25.5485C36.9183 25.5485 36.5197 25.4772 36.1522 25.3345C35.7898 25.1919 35.474 24.9911 35.2048 24.7323C34.9408 24.4734 34.7337 24.1696 34.5836 23.821C34.4386 23.4723 34.3662 23.0919 34.3662 22.6798C34.3662 22.2677 34.4386 21.8874 34.5836 21.5387C34.7337 21.19 34.9434 20.8862 35.2126 20.6274C35.4818 20.3685 35.7975 20.1677 36.1599 20.0251C36.5223 19.8825 36.9157 19.8111 37.3402 19.8111C37.7699 19.8111 38.1634 19.8825 38.5206 20.0251C38.8829 20.1677 39.1961 20.3685 39.4602 20.6274C39.7293 20.8862 39.939 21.19 40.0891 21.5387C40.2393 21.8821 40.3143 22.2625 40.3143 22.6798C40.3143 23.0919 40.2393 23.4749 40.0891 23.8289C39.939 24.1776 39.7293 24.4813 39.4602 24.7402C39.1961 24.9938 38.8829 25.1919 38.5206 25.3345C38.1634 25.4772 37.7725 25.5485 37.348 25.5485ZM37.3402 24.4549C37.5836 24.4549 37.8062 24.4127 38.0081 24.3281C38.2151 24.2436 38.3963 24.1221 38.5516 23.9636C38.7069 23.8051 38.826 23.6176 38.9088 23.401C38.9968 23.1844 39.0408 22.944 39.0408 22.6798C39.0408 22.4157 38.9968 22.1753 38.9088 21.9587C38.826 21.7421 38.7069 21.5545 38.5516 21.3961C38.4015 21.2376 38.2229 21.1161 38.0158 21.0315C37.8087 20.947 37.5836 20.9047 37.3402 20.9047C37.0969 20.9047 36.8717 20.947 36.6647 21.0315C36.4628 21.1161 36.2842 21.2376 36.1289 21.3961C35.9736 21.5545 35.8519 21.7421 35.7639 21.9587C35.6811 22.1753 35.6397 22.4157 35.6397 22.6798C35.6397 22.9387 35.6811 23.1791 35.7639 23.401C35.8519 23.6176 35.971 23.8051 36.1211 23.9636C36.2764 24.1221 36.4576 24.2436 36.6647 24.3281C36.8717 24.4127 37.0969 24.4549 37.3402 24.4549Z" fill="#213D88"/>
<path d="M43.0458 25.5485C42.6109 25.5485 42.1942 25.4904 41.7955 25.3742C41.3969 25.2527 41.076 25.0968 40.8327 24.9066L41.2597 23.9398C41.4927 24.1089 41.7671 24.2489 42.0829 24.3598C42.4038 24.4655 42.7274 24.5183 43.0535 24.5183C43.302 24.5183 43.5013 24.4945 43.6514 24.447C43.8067 24.3942 43.9206 24.3228 43.9931 24.233C44.0656 24.1432 44.1018 24.0402 44.1018 23.924C44.1018 23.7761 44.0449 23.6598 43.931 23.5753C43.8171 23.4855 43.667 23.4142 43.4806 23.3613C43.2942 23.3032 43.0872 23.2504 42.8594 23.2028C42.6368 23.15 42.4116 23.0866 42.1838 23.0127C41.9612 22.9387 41.7567 22.8436 41.5704 22.7274C41.384 22.6111 41.2313 22.4579 41.1122 22.2677C40.9983 22.0776 40.9414 21.8345 40.9414 21.5387C40.9414 21.2217 41.0242 20.9338 41.1899 20.6749C41.3607 20.4108 41.6144 20.2021 41.9509 20.0489C42.2925 19.8904 42.7196 19.8111 43.2321 19.8111C43.5738 19.8111 43.9103 19.8534 44.2416 19.9379C44.5729 20.0172 44.8654 20.1387 45.1191 20.3025L44.7308 21.2772C44.4771 21.1293 44.2235 21.021 43.9698 20.9523C43.7161 20.8783 43.4677 20.8413 43.2244 20.8413C42.981 20.8413 42.7817 20.8704 42.6264 20.9285C42.4711 20.9866 42.3598 21.0632 42.2925 21.1583C42.2252 21.2481 42.1916 21.3538 42.1916 21.4753C42.1916 21.6179 42.2485 21.7342 42.3624 21.824C42.4763 21.9085 42.6264 21.9772 42.8128 22.03C42.9992 22.0828 43.2036 22.1357 43.4262 22.1885C43.654 22.2413 43.8792 22.3021 44.1018 22.3708C44.3296 22.4394 44.5367 22.5319 44.723 22.6481C44.9094 22.7644 45.0595 22.9176 45.1734 23.1077C45.2925 23.2979 45.352 23.5383 45.352 23.8289C45.352 24.1406 45.2666 24.4259 45.0958 24.6847C44.9249 24.9436 44.6687 25.1523 44.327 25.3108C43.9905 25.4693 43.5634 25.5485 43.0458 25.5485Z" fill="#213D88"/>
<path d="M49.9389 19.9062H51.1969V25.4534H49.9389V19.9062ZM47.4696 25.4534H46.2116V19.9062H47.4696V25.4534ZM50.0321 23.1791H47.3764V22.0934H50.0321V23.1791Z" fill="#213D88"/>
<path d="M55.1154 25.5485C54.6909 25.5485 54.2948 25.4772 53.9273 25.3345C53.5649 25.1919 53.2491 24.9911 52.9799 24.7323C52.7159 24.4734 52.5088 24.1696 52.3587 23.821C52.2137 23.4723 52.1413 23.0919 52.1413 22.6798C52.1413 22.2677 52.2137 21.8874 52.3587 21.5387C52.5088 21.19 52.7185 20.8862 52.9877 20.6274C53.2569 20.3685 53.5727 20.1677 53.935 20.0251C54.2974 19.8825 54.6909 19.8111 55.1154 19.8111C55.545 19.8111 55.9385 19.8825 56.2957 20.0251C56.6581 20.1677 56.9713 20.3685 57.2353 20.6274C57.5045 20.881 57.7141 21.1821 57.8643 21.5308C58.0144 21.8794 58.0894 22.2625 58.0894 22.6798C58.0894 23.0919 58.0144 23.4749 57.8643 23.8289C57.7141 24.1776 57.5045 24.4813 57.2353 24.7402C56.9713 24.9938 56.6581 25.1919 56.2957 25.3345C55.9385 25.4772 55.545 25.5485 55.1154 25.5485ZM56.8936 26.7293C56.6814 26.7293 56.4795 26.7055 56.2879 26.6579C56.1015 26.6104 55.9152 26.5338 55.7288 26.4281C55.5476 26.3225 55.3561 26.1798 55.1542 26.0002C54.9575 25.8206 54.7426 25.5987 54.5097 25.3345L55.8298 24.9938C55.9695 25.1893 56.099 25.3451 56.218 25.4613C56.3371 25.5776 56.451 25.6594 56.5597 25.707C56.6736 25.7545 56.7927 25.7783 56.9169 25.7783C57.2482 25.7783 57.5433 25.641 57.8021 25.3662L58.3612 26.0478C57.9937 26.5021 57.5045 26.7293 56.8936 26.7293ZM55.1154 24.4549C55.3587 24.4549 55.5813 24.4127 55.7832 24.3281C55.9902 24.2436 56.1714 24.1221 56.3267 23.9636C56.482 23.8051 56.6011 23.6176 56.6839 23.401C56.7719 23.1791 56.816 22.9387 56.816 22.6798C56.816 22.4157 56.7719 22.1753 56.6839 21.9587C56.6011 21.7421 56.482 21.5545 56.3267 21.3961C56.1714 21.2376 55.9902 21.1161 55.7832 21.0315C55.5813 20.947 55.3587 20.9047 55.1154 20.9047C54.8721 20.9047 54.6469 20.947 54.4398 21.0315C54.2327 21.1161 54.0515 21.2376 53.8962 21.3961C53.7461 21.5545 53.627 21.7421 53.539 21.9587C53.4562 22.1753 53.4148 22.4157 53.4148 22.6798C53.4148 22.9387 53.4562 23.1791 53.539 23.401C53.627 23.6176 53.7461 23.8051 53.8962 23.9636C54.0515 24.1221 54.2327 24.2436 54.4398 24.3281C54.6469 24.4127 54.8721 24.4549 55.1154 24.4549Z" fill="#213D88"/>
<path d="M58.2446 25.4534L60.6674 19.9062H61.9098L64.3403 25.4534H63.0203L61.0324 20.5561H61.5293L59.5337 25.4534H58.2446ZM59.456 24.2647L59.7899 23.29H62.5854L62.9271 24.2647H59.456Z" fill="#213D88"/>
<path d="M64.9043 25.4534V19.9062H67.2572C67.7438 19.9062 68.1631 19.9881 68.5151 20.1519C68.8672 20.3104 69.1389 20.5402 69.3305 20.8413C69.522 21.1425 69.6178 21.5017 69.6178 21.9191C69.6178 22.3311 69.522 22.6877 69.3305 22.9889C69.1389 23.2847 68.8672 23.5119 68.5151 23.6704C68.1631 23.8289 67.7438 23.9081 67.2572 23.9081H65.6032L66.1623 23.3455V25.4534H64.9043ZM68.3598 25.4534L67.0009 23.4406H68.3443L69.7187 25.4534H68.3598ZM66.1623 23.4881L65.6032 22.8859H67.1873C67.5755 22.8859 67.8654 22.8013 68.057 22.6323C68.2485 22.4579 68.3443 22.2202 68.3443 21.9191C68.3443 21.6127 68.2485 21.3749 68.057 21.2059C67.8654 21.0368 67.5755 20.9523 67.1873 20.9523H65.6032L66.1623 20.3421V23.4881Z" fill="#213D88"/>
<path d="M70.6145 25.4534V19.9062H71.655L73.9691 23.821H73.4177L75.6929 19.9062H76.7257L76.7413 25.4534H75.5609L75.5532 21.7527H75.7706L73.9535 24.867H73.3867L71.5308 21.7527H71.7948V25.4534H70.6145Z" fill="#213D88"/>
<path d="M77.3165 25.4534L79.7392 19.9062H80.9817L83.4122 25.4534H82.0921L80.1042 20.5561H80.6012L78.6055 25.4534H77.3165ZM78.5279 24.2647L78.8618 23.29H81.6573L81.9989 24.2647H78.5279Z" fill="#213D88"/>
<path d="M85.7622 25.5485C85.3273 25.5485 84.9106 25.4904 84.512 25.3742C84.1133 25.2527 83.7924 25.0968 83.5491 24.9066L83.9762 23.9398C84.2091 24.1089 84.4835 24.2489 84.7993 24.3598C85.1202 24.4655 85.4438 24.5183 85.7699 24.5183C86.0184 24.5183 86.2177 24.4945 86.3678 24.447C86.5232 24.3942 86.637 24.3228 86.7095 24.233C86.782 24.1432 86.8182 24.0402 86.8182 23.924C86.8182 23.7761 86.7613 23.6598 86.6474 23.5753C86.5335 23.4855 86.3834 23.4142 86.197 23.3613C86.0106 23.3032 85.8036 23.2504 85.5758 23.2028C85.3532 23.15 85.128 23.0866 84.9002 23.0127C84.6776 22.9387 84.4731 22.8436 84.2868 22.7274C84.1004 22.6111 83.9477 22.4579 83.8286 22.2677C83.7147 22.0776 83.6578 21.8345 83.6578 21.5387C83.6578 21.2217 83.7406 20.9338 83.9063 20.6749C84.0771 20.4108 84.3308 20.2021 84.6673 20.0489C85.0089 19.8904 85.436 19.8111 85.9485 19.8111C86.2902 19.8111 86.6267 19.8534 86.958 19.9379C87.2893 20.0172 87.5818 20.1387 87.8355 20.3025L87.4472 21.2772C87.1936 21.1293 86.9399 21.021 86.6862 20.9523C86.4326 20.8783 86.1841 20.8413 85.9408 20.8413C85.6974 20.8413 85.4981 20.8704 85.3428 20.9285C85.1875 20.9866 85.0762 21.0632 85.0089 21.1583C84.9416 21.2481 84.908 21.3538 84.908 21.4753C84.908 21.6179 84.9649 21.7342 85.0788 21.824C85.1927 21.9085 85.3428 21.9772 85.5292 22.03C85.7156 22.0828 85.9201 22.1357 86.1427 22.1885C86.3704 22.2413 86.5956 22.3021 86.8182 22.3708C87.046 22.4394 87.2531 22.5319 87.4394 22.6481C87.6258 22.7644 87.7759 22.9176 87.8898 23.1077C88.0089 23.2979 88.0684 23.5383 88.0684 23.8289C88.0684 24.1406 87.983 24.4259 87.8122 24.6847C87.6413 24.9436 87.3851 25.1523 87.0434 25.3108C86.7069 25.4693 86.2798 25.5485 85.7622 25.5485Z" fill="#213D88"/>
<path d="M88.928 25.4534V19.9062H90.186V25.4534H88.928Z" fill="#213D88"/>
</svg>
