<svg width="28" height="28" viewBox="0 0 28 28" fill="none" xmlns="http://www.w3.org/2000/svg">
<rect width="28" height="28" rx="4" fill="white" fill-opacity="0.15"/>
<path d="M8.58472 16.4525L10.4897 16.235C10.9472 16.1825 11.3972 16.34 11.7197 16.6625L13.0997 18.0425C15.2222 16.9625 16.9622 15.23 18.0422 13.1L16.6547 11.7125C16.3322 11.39 16.1747 10.94 16.2272 10.4825L16.4447 8.59251C16.5347 7.83501 17.1722 7.26501 17.9372 7.26501H19.2347C20.0822 7.26501 20.7872 7.97001 20.7347 8.81751C20.3372 15.2225 15.2147 20.3375 8.81722 20.735C7.96972 20.7875 7.26472 20.0825 7.26472 19.235V17.9375C7.25722 17.18 7.82722 16.5425 8.58472 16.4525Z" fill="#98D957"/>
</svg>
