<svg width="48" height="48" viewBox="0 0 48 48" fill="none" xmlns="http://www.w3.org/2000/svg">
<rect width="48" height="48" rx="24" fill="#E9EBF2"/>
<path d="M36.5866 20.5897C36.5866 17.2507 35.2602 14.0485 32.8992 11.6874C30.5381 9.32641 27.3359 8 23.9969 8C20.6579 8 17.4557 9.32641 15.0946 11.6874C12.7336 14.0485 11.4072 17.2507 11.4072 20.5897C10.8458 20.5894 10.3065 20.8079 9.90354 21.1988C9.5006 21.5896 9.2658 22.1221 9.24896 22.6832V28.568C9.24896 29.1232 9.46953 29.6557 9.86213 30.0483C10.2547 30.4409 10.7872 30.6615 11.3424 30.6615H12.7813C13.6417 32.3429 14.8708 33.8082 16.3769 34.948C17.8829 36.0879 19.627 36.8728 21.479 37.2441C21.5085 37.9423 21.7912 38.6059 22.2741 39.1111C22.7571 39.6162 23.4074 39.9283 24.1036 39.9891C24.7999 40.0499 25.4944 39.8553 26.0576 39.4415C26.6209 39.0278 27.0143 38.4232 27.1645 37.7406C27.3146 37.0581 27.2113 36.3442 26.8737 35.7323C26.5361 35.1204 25.9873 34.6522 25.3299 34.4152C24.6724 34.1782 23.9512 34.1886 23.3008 34.4444C22.6504 34.7001 22.1154 35.1839 21.7955 35.8052C20.1905 35.4891 18.6755 34.8213 17.3595 33.8498C16.0434 32.8783 14.959 31.6273 14.1841 30.1866C14.4335 29.9956 14.6367 29.751 14.7787 29.4708C14.9207 29.1906 14.9977 28.882 15.0043 28.568V22.6832C14.9874 22.1221 14.7526 21.5896 14.3497 21.1988C13.9467 20.8079 13.4074 20.5894 12.846 20.5897C12.846 17.6323 14.0208 14.796 16.112 12.7048C18.2032 10.6136 21.0395 9.43882 23.9969 9.43882C26.9543 9.43882 29.7906 10.6136 31.8818 12.7048C33.9729 14.796 35.1478 17.6323 35.1478 20.5897C35.1478 20.5897 32.8816 20.5393 32.9895 22.6832V28.568C32.9895 29.1232 33.2101 29.6557 33.6027 30.0483C33.9953 30.4409 34.5278 30.6615 35.083 30.6615H36.6513C37.2066 30.6615 37.739 30.4409 38.1317 30.0483C38.5243 29.6557 38.7448 29.1232 38.7448 28.568V22.6832C38.7678 22.3968 38.7271 22.1089 38.6259 21.84C38.5246 21.5712 38.3651 21.328 38.1589 21.128C37.9527 20.928 37.7048 20.776 37.433 20.6829C37.1612 20.5899 36.8721 20.558 36.5866 20.5897Z" fill="#213D88"/>
</svg>
