<svg width="48" height="48" viewBox="0 0 48 48" fill="none" xmlns="http://www.w3.org/2000/svg">
<rect width="48" height="48" rx="6" fill="#E9EBF2"/>
<path fill-rule="evenodd" clip-rule="evenodd" d="M33.9445 36.0555C34.9022 36.0555 35.8207 35.675 36.4979 34.9978C37.1751 34.3206 37.5556 33.4021 37.5556 32.4443C37.5556 31.4866 37.1751 30.5681 36.4979 29.8909C35.8207 29.2137 34.9022 28.8332 33.9445 28.8332C32.9867 28.8332 32.0682 29.2137 31.391 29.8909C30.7138 30.5681 30.3334 31.4866 30.3334 32.4443C30.3334 33.4021 30.7138 34.3206 31.391 34.9978C32.0682 35.675 32.9867 36.0555 33.9445 36.0555ZM33.9445 37.4999C35.2853 37.4999 36.5712 36.9673 37.5193 36.0192C38.4674 35.0711 39 33.7852 39 32.4443C39 31.1035 38.4674 29.8176 37.5193 28.8695C36.5712 27.9214 35.2853 27.3888 33.9445 27.3888C32.6037 27.3888 31.3178 27.9214 30.3697 28.8695C29.4216 29.8176 28.8889 31.1035 28.8889 32.4443C28.8889 33.7852 29.4216 35.0711 30.3697 36.0192C31.3178 36.9673 32.6037 37.4999 33.9445 37.4999Z" fill="#213D88"/>
<path fill-rule="evenodd" clip-rule="evenodd" d="M33.9445 29.9167C34.136 29.9167 34.3197 29.9928 34.4552 30.1282C34.5906 30.2637 34.6667 30.4474 34.6667 30.6389V32.1455L35.1773 32.6561C35.3089 32.7923 35.3817 32.9747 35.38 33.1641C35.3784 33.3535 35.3024 33.5346 35.1685 33.6685C35.0346 33.8024 34.8535 33.8784 34.6641 33.88C34.4747 33.8817 34.2923 33.8089 34.1561 33.6773L33.2222 32.7435V30.6389C33.2222 30.4474 33.2983 30.2637 33.4338 30.1282C33.5692 29.9928 33.7529 29.9167 33.9445 29.9167ZM18.7778 23.7778H17.3334V25.2223H18.7778V23.7778ZM17.3334 22.3334C16.9503 22.3334 16.5829 22.4856 16.312 22.7564C16.0411 23.0273 15.8889 23.3947 15.8889 23.7778V25.2223C15.8889 25.6054 16.0411 25.9728 16.312 26.2436C16.5829 26.5145 16.9503 26.6667 17.3334 26.6667H18.7778C19.1609 26.6667 19.5283 26.5145 19.7992 26.2436C20.0701 25.9728 20.2222 25.6054 20.2222 25.2223V23.7778C20.2222 23.3947 20.0701 23.0273 19.7992 22.7564C19.5283 22.4856 19.1609 22.3334 18.7778 22.3334H17.3334ZM24.5556 23.7778H23.1111V25.2223H24.5556V23.7778ZM23.1111 22.3334C22.728 22.3334 22.3606 22.4856 22.0898 22.7564C21.8189 23.0273 21.6667 23.3947 21.6667 23.7778V25.2223C21.6667 25.6054 21.8189 25.9728 22.0898 26.2436C22.3606 26.5145 22.728 26.6667 23.1111 26.6667H24.5556C24.9387 26.6667 25.3061 26.5145 25.577 26.2436C25.8478 25.9728 26 25.6054 26 25.2223V23.7778C26 23.3947 25.8478 23.0273 25.577 22.7564C25.3061 22.4856 24.9387 22.3334 24.5556 22.3334H23.1111ZM30.3334 23.7778H28.8889V25.2223H30.3334V23.7778ZM28.8889 22.3334C28.5058 22.3334 28.1384 22.4856 27.8675 22.7564C27.5967 23.0273 27.4445 23.3947 27.4445 23.7778V25.2223C27.4445 25.6054 27.5967 25.9728 27.8675 26.2436C28.1384 26.5145 28.5058 26.6667 28.8889 26.6667H30.3334C30.7165 26.6667 31.0839 26.5145 31.3547 26.2436C31.6256 25.9728 31.7778 25.6054 31.7778 25.2223V23.7778C31.7778 23.3947 31.6256 23.0273 31.3547 22.7564C31.0839 22.4856 30.7165 22.3334 30.3334 22.3334H28.8889ZM18.7778 29.5556H17.3334V31H18.7778V29.5556ZM17.3334 28.1112C16.9503 28.1112 16.5829 28.2633 16.312 28.5342C16.0411 28.8051 15.8889 29.1725 15.8889 29.5556V31C15.8889 31.3831 16.0411 31.7505 16.312 32.0214C16.5829 32.2923 16.9503 32.4445 17.3334 32.4445H18.7778C19.1609 32.4445 19.5283 32.2923 19.7992 32.0214C20.0701 31.7505 20.2222 31.3831 20.2222 31V29.5556C20.2222 29.1725 20.0701 28.8051 19.7992 28.5342C19.5283 28.2633 19.1609 28.1112 18.7778 28.1112H17.3334ZM24.5556 29.5556H23.1111V31H24.5556V29.5556ZM23.1111 28.1112C22.728 28.1112 22.3606 28.2633 22.0898 28.5342C21.8189 28.8051 21.6667 29.1725 21.6667 29.5556V31C21.6667 31.3831 21.8189 31.7505 22.0898 32.0214C22.3606 32.2923 22.728 32.4445 23.1111 32.4445H24.5556C24.9387 32.4445 25.3061 32.2923 25.577 32.0214C25.8478 31.7505 26 31.3831 26 31V29.5556C26 29.1725 25.8478 28.8051 25.577 28.5342C25.3061 28.2633 24.9387 28.1112 24.5556 28.1112H23.1111Z" fill="#213D88"/>
<path fill-rule="evenodd" clip-rule="evenodd" d="M14.4444 15.8333C14.4444 15.6417 14.5205 15.458 14.656 15.3226C14.7914 15.1872 14.9751 15.1111 15.1667 15.1111H18.7778V13.6666H15.1667C14.592 13.6666 14.0409 13.8949 13.6346 14.3012C13.2283 14.7076 13 15.2587 13 15.8333V33.1666C13 33.7413 13.2283 34.2924 13.6346 34.6987C14.0409 35.105 14.592 35.3333 15.1667 35.3333H29.7953C29.4873 34.8921 29.252 34.4045 29.0983 33.8888H15.1667C14.9751 33.8888 14.7914 33.8128 14.656 33.6773C14.5205 33.5419 14.4444 33.3582 14.4444 33.1666V15.8333ZM33.2222 27.4394C33.7013 27.3709 34.1876 27.3709 34.6667 27.4394V15.8333C34.6667 15.2587 34.4384 14.7076 34.0321 14.3012C33.6257 13.8949 33.0746 13.6666 32.5 13.6666H30.3333V15.1111H32.5C32.6915 15.1111 32.8752 15.1872 33.0107 15.3226C33.1461 15.458 33.2222 15.6417 33.2222 15.8333V27.4394ZM20.2222 15.1111H27.8511V13.6666H20.2222V15.1111Z" fill="#213D88"/>
<path fill-rule="evenodd" clip-rule="evenodd" d="M34.6668 20.1667H14.4446V18.7223H34.6668V20.1667Z" fill="#213D88"/>
<path d="M17.3334 12.2222C17.3334 12.0307 17.4095 11.847 17.5449 11.7115C17.6804 11.5761 17.8641 11.5 18.0556 11.5C18.2471 11.5 18.4308 11.5761 18.5663 11.7115C18.7017 11.847 18.7778 12.0307 18.7778 12.2222V15.8333C18.7778 16.0249 18.7017 16.2086 18.5663 16.344C18.4308 16.4795 18.2471 16.5556 18.0556 16.5556C17.8641 16.5556 17.6804 16.4795 17.5449 16.344C17.4095 16.2086 17.3334 16.0249 17.3334 15.8333V12.2222ZM27.4445 12.2222C27.4445 12.0307 27.5206 11.847 27.656 11.7115C27.7915 11.5761 27.9752 11.5 28.1667 11.5C28.3583 11.5 28.542 11.5761 28.6774 11.7115C28.8128 11.847 28.8889 12.0307 28.8889 12.2222V15.8333C28.8889 16.0249 28.8128 16.2086 28.6774 16.344C28.542 16.4795 28.3583 16.5556 28.1667 16.5556C27.9752 16.5556 27.7915 16.4795 27.656 16.344C27.5206 16.2086 27.4445 16.0249 27.4445 15.8333V12.2222Z" fill="#213D88"/>
</svg>
