<svg width="48" height="48" viewBox="0 0 48 48" fill="none" xmlns="http://www.w3.org/2000/svg">
<rect width="48" height="48" rx="6" fill="#E9EBF2"/>
<path d="M28.4 22.8C28.0818 22.8 27.7765 22.6736 27.5515 22.4485C27.3265 22.2235 27.2 21.9183 27.2 21.6C27.2 21.2818 27.3265 20.9765 27.5515 20.7515C27.7765 20.5264 28.0818 20.4 28.4 20.4C28.7183 20.4 29.0235 20.5264 29.2486 20.7515C29.4736 20.9765 29.6 21.2818 29.6 21.6C29.6 21.9183 29.4736 22.2235 29.2486 22.4485C29.0235 22.6736 28.7183 22.8 28.4 22.8ZM28.4 27.6C28.0818 27.6 27.7765 27.4736 27.5515 27.2485C27.3265 27.0235 27.2 26.7183 27.2 26.4C27.2 26.0818 27.3265 25.7765 27.5515 25.5515C27.7765 25.3264 28.0818 25.2 28.4 25.2C28.7183 25.2 29.0235 25.3264 29.2486 25.5515C29.4736 25.7765 29.6 26.0818 29.6 26.4C29.6 26.7183 29.4736 27.0235 29.2486 27.2485C29.0235 27.4736 28.7183 27.6 28.4 27.6ZM27.2 31.2C27.2 31.5183 27.3265 31.8235 27.5515 32.0485C27.7765 32.2736 28.0818 32.4 28.4 32.4C28.7183 32.4 29.0235 32.2736 29.2486 32.0485C29.4736 31.8235 29.6 31.5183 29.6 31.2C29.6 30.8818 29.4736 30.5765 29.2486 30.3515C29.0235 30.1264 28.7183 30 28.4 30C28.0818 30 27.7765 30.1264 27.5515 30.3515C27.3265 30.5765 27.2 30.8818 27.2 31.2ZM25.6 21.6C25.6 21.3878 25.5157 21.1844 25.3657 21.0343C25.2157 20.8843 25.0122 20.8 24.8 20.8H19.2C18.9879 20.8 18.7844 20.8843 18.6343 21.0343C18.4843 21.1844 18.4 21.3878 18.4 21.6C18.4 21.8122 18.4843 22.0157 18.6343 22.1657C18.7844 22.3157 18.9879 22.4 19.2 22.4H24.8C25.0122 22.4 25.2157 22.3157 25.3657 22.1657C25.5157 22.0157 25.6 21.8122 25.6 21.6ZM25.6 26.4C25.6 26.1878 25.5157 25.9844 25.3657 25.8343C25.2157 25.6843 25.0122 25.6 24.8 25.6H19.2C18.9879 25.6 18.7844 25.6843 18.6343 25.8343C18.4843 25.9844 18.4 26.1878 18.4 26.4C18.4 26.6122 18.4843 26.8157 18.6343 26.9657C18.7844 27.1157 18.9879 27.2 19.2 27.2H24.8C25.0122 27.2 25.2157 27.1157 25.3657 26.9657C25.5157 26.8157 25.6 26.6122 25.6 26.4ZM25.6 31.2C25.6 30.9878 25.5157 30.7844 25.3657 30.6343C25.2157 30.4843 25.0122 30.4 24.8 30.4H19.2C18.9879 30.4 18.7844 30.4843 18.6343 30.6343C18.4843 30.7844 18.4 30.9878 18.4 31.2C18.4 31.4122 18.4843 31.6157 18.6343 31.7657C18.7844 31.9157 18.9879 32 19.2 32H24.8C25.0122 32 25.2157 31.9157 25.3657 31.7657C25.5157 31.6157 25.6 31.4122 25.6 31.2ZM21.6 11.2C21.1035 11.1998 20.6191 11.3535 20.2136 11.6401C19.8082 11.9266 19.5015 12.3319 19.336 12.8H16.8C16.1635 12.8 15.5531 13.0529 15.103 13.503C14.6529 13.953 14.4 14.5635 14.4 15.2V34.4C14.4 35.0365 14.6529 35.647 15.103 36.0971C15.5531 36.5472 16.1635 36.8 16.8 36.8H31.2C31.8365 36.8 32.447 36.5472 32.8971 36.0971C33.3472 35.647 33.6 35.0365 33.6 34.4V15.2C33.6 14.5635 33.3472 13.953 32.8971 13.503C32.447 13.0529 31.8365 12.8 31.2 12.8H28.664C28.4985 12.3319 28.1919 11.9266 27.7864 11.6401C27.3809 11.3535 26.8965 11.1998 26.4 11.2H21.6ZM20.8 13.6C20.8 13.3878 20.8843 13.1844 21.0343 13.0343C21.1844 12.8843 21.3879 12.8 21.6 12.8H26.4C26.6122 12.8 26.8157 12.8843 26.9657 13.0343C27.1157 13.1844 27.2 13.3878 27.2 13.6C27.2 13.8122 27.1157 14.0157 26.9657 14.1657C26.8157 14.3157 26.6122 14.4 26.4 14.4H21.6C21.3879 14.4 21.1844 14.3157 21.0343 14.1657C20.8843 14.0157 20.8 13.8122 20.8 13.6ZM16.8 14.4H19.336C19.5015 14.8681 19.8082 15.2734 20.2136 15.56C20.6191 15.8465 21.1035 16.0003 21.6 16H26.4C26.8965 16.0003 27.3809 15.8465 27.7864 15.56C28.1919 15.2734 28.4985 14.8681 28.664 14.4H31.2C31.4122 14.4 31.6157 14.4843 31.7657 14.6343C31.9157 14.7844 32 14.9878 32 15.2V34.4C32 34.6122 31.9157 34.8157 31.7657 34.9657C31.6157 35.1157 31.4122 35.2 31.2 35.2H16.8C16.5879 35.2 16.3844 35.1157 16.2343 34.9657C16.0843 34.8157 16 34.6122 16 34.4V15.2C16 14.9878 16.0843 14.7844 16.2343 14.6343C16.3844 14.4843 16.5879 14.4 16.8 14.4Z" fill="#213D88"/>
</svg>
