<svg width="48" height="48" viewBox="0 0 48 48" fill="none" xmlns="http://www.w3.org/2000/svg">
<rect width="48" height="48" rx="6" fill="#E9EBF2"/>
<path d="M15.9614 12.1052L14.7294 13.3355L16.5625 15.1677L17.7928 13.9375L15.9605 12.1052H15.9614ZM32.0395 12.1052L30.2064 13.9375L31.4375 15.1677L33.2698 13.3363L32.0386 12.1052H32.0395ZM24 12.6512C23.7113 12.6547 23.419 12.6713 23.125 12.7072C23.1163 12.7072 23.1075 12.7055 23.0988 12.7072C19.5497 13.1141 16.7252 15.9815 16.2344 19.5147C15.8424 22.3585 17.0149 24.9371 18.9688 26.5978C19.768 27.28 20.3086 28.216 20.5 29.2491V34.4991H22.495C22.7995 35.0215 23.3551 35.3741 24 35.3741C24.6449 35.3741 25.2005 35.0215 25.505 34.4991H27.5V30.9991H27.5822V29.9596C27.5822 28.6768 28.249 27.3836 29.3323 26.3782C30.7812 24.9275 31.875 22.8668 31.875 20.5C31.875 16.1775 28.3172 12.611 24 12.6512ZM24 14.4012C27.3819 14.354 30.125 17.1225 30.125 20.5C30.125 22.3322 29.2763 23.9457 28.1011 25.12L28.1291 25.148C26.9613 26.2248 26.2062 27.6757 25.9941 29.25H22.1669C21.9744 27.7502 21.3313 26.2986 20.1159 25.2573C18.5697 23.9448 17.6484 21.9674 17.9564 19.7343C18.3388 16.9781 20.5753 14.7617 23.3158 14.4581C23.542 14.4266 23.7699 14.4079 23.9983 14.4021L24 14.4012ZM11.75 20.5V22.25H14.375V20.5H11.75ZM33.625 20.5V22.25H36.25V20.5H33.625ZM16.5625 27.5822L14.7303 29.4136L15.9614 30.6447L17.7919 28.8125L16.5625 27.5822ZM31.4375 27.5822L30.2073 28.8125L32.0386 30.6447L33.2698 29.4136L31.4375 27.5822ZM22.25 31H25.75V32.75H22.25V31Z" fill="#213D88"/>
</svg>
