<svg width="66" height="50" viewBox="0 0 66 50" fill="none" xmlns="http://www.w3.org/2000/svg">
<path d="M47.5063 28.25L48.9478 27.8877C50.0289 27.6463 51.1701 27.5256 52.3713 27.5256C55.6146 27.5256 58.1973 28.3706 60.1193 30.0607C62.0413 31.7507 63.002 33.9838 63.002 36.7603C63.002 39.7782 61.981 42.2529 59.9389 44.1843C58.017 46.1158 55.4945 47.0814 52.3713 47.0814C48.2871 47.0814 44.8638 45.5725 42.101 42.5546C39.3382 39.416 37.9566 35.5531 37.9566 30.9659C37.9566 25.5337 39.8184 20.2827 43.5422 15.2127C47.266 10.1426 52.1312 6.09869 58.1373 3.08081L59.7589 6.5211C49.9088 13.2812 44.9837 19.6792 44.9837 25.7149C44.9837 27.405 45.8245 28.25 47.5063 28.25ZM12.5509 28.25L13.9922 27.8877C15.0733 27.6463 16.2145 27.5256 17.4157 27.5256C20.659 27.5256 23.2418 28.3706 25.1637 30.0607C27.0857 31.7507 28.0464 33.9838 28.0464 36.7603C28.0464 39.7782 27.0254 42.2529 24.9834 44.1843C23.0614 46.1158 20.5389 47.0814 17.4157 47.0814C13.3315 47.0814 9.9082 45.5725 7.14539 42.5546C4.38258 39.416 3.00098 35.5531 3.00098 30.9659C3.00098 25.5337 4.8631 20.2827 8.58689 15.2127C12.3107 10.1426 17.1756 6.09869 23.1817 3.08081L24.8033 6.5211C14.9533 13.2812 10.0281 19.6792 10.0281 25.7149C10.0281 27.405 10.8692 28.25 12.5509 28.25Z" fill="white"/>
<path d="M47.5063 28.25L48.9478 27.8877C50.0289 27.6463 51.1701 27.5256 52.3713 27.5256C55.6146 27.5256 58.1973 28.3706 60.1193 30.0607C62.0413 31.7507 63.002 33.9838 63.002 36.7603C63.002 39.7782 61.981 42.2529 59.9389 44.1843C58.017 46.1158 55.4945 47.0814 52.3713 47.0814C48.2871 47.0814 44.8638 45.5725 42.101 42.5546C39.3382 39.416 37.9566 35.5531 37.9566 30.9659C37.9566 25.5337 39.8184 20.2827 43.5422 15.2127C47.266 10.1426 52.1312 6.09869 58.1373 3.08081L59.7589 6.5211C49.9088 13.2812 44.9837 19.6792 44.9837 25.7149C44.9837 27.405 45.8245 28.25 47.5063 28.25ZM12.5509 28.25L13.9922 27.8877C15.0733 27.6463 16.2145 27.5256 17.4157 27.5256C20.659 27.5256 23.2418 28.3706 25.1637 30.0607C27.0857 31.7507 28.0464 33.9838 28.0464 36.7603C28.0464 39.7782 27.0254 42.2529 24.9834 44.1843C23.0614 46.1158 20.5389 47.0814 17.4157 47.0814C13.3315 47.0814 9.9082 45.5725 7.14539 42.5546C4.38258 39.416 3.00098 35.5531 3.00098 30.9659C3.00098 25.5337 4.8631 20.2827 8.58689 15.2127C12.3107 10.1426 17.1756 6.09869 23.1817 3.08081L24.8033 6.5211C14.9533 13.2812 10.0281 19.6792 10.0281 25.7149C10.0281 27.405 10.8692 28.25 12.5509 28.25Z" stroke="white"/>
</svg>
